<?xml version="1.0" encoding="UTF-8" standalone="no"?>
<svg
   xmlns:dc="http://purl.org/dc/elements/1.1/"
   xmlns:cc="http://creativecommons.org/ns#"
   xmlns:rdf="http://www.w3.org/1999/02/22-rdf-syntax-ns#"
   xmlns:svg="http://www.w3.org/2000/svg"
   xmlns="http://www.w3.org/2000/svg"
   viewBox="0 0 1262.72 721.27997"
   height="721.27997"
   width="1262.72"
   xml:space="preserve"
   id="svg2"
   version="1.1"><metadata
     id="metadata8"><rdf:RDF><cc:Work
         rdf:about=""><dc:format>image/svg+xml</dc:format><dc:type
           rdf:resource="http://purl.org/dc/dcmitype/StillImage" /></cc:Work></rdf:RDF></metadata><defs
     id="defs6"><clipPath
       id="clipPath18"
       clipPathUnits="userSpaceOnUse"><path
         style="clip-rule:evenodd"
         id="path16"
         d="M 0,0 H 3945.833 V 2252.5303 H 0 Z" /></clipPath><clipPath
       id="clipPath30"
       clipPathUnits="userSpaceOnUse"><path
         style="clip-rule:evenodd"
         id="path28"
         d="M 0,0 H 3945.833 V 2252.5303 H 0 Z" /></clipPath><clipPath
       id="clipPath42"
       clipPathUnits="userSpaceOnUse"><path
         style="clip-rule:evenodd"
         id="path40"
         d="M 0,0 H 3945.833 V 2252.5303 H 0 Z" /></clipPath><clipPath
       id="clipPath54"
       clipPathUnits="userSpaceOnUse"><path
         id="path52"
         d="M 0,0 H 3945.833 V 2252.5303 H 0 Z" /></clipPath><clipPath
       id="clipPath60"
       clipPathUnits="userSpaceOnUse"><path
         id="path58"
         d="M 0,0 H 3945.833 V 2255.6543 H 0 Z" /></clipPath><clipPath
       id="clipPath66"
       clipPathUnits="userSpaceOnUse"><path
         id="path64"
         d="M 118.37499,118.977 H 3818.8381 V 2157.0891 H 118.37499 Z" /></clipPath><clipPath
       id="clipPath72"
       clipPathUnits="userSpaceOnUse"><path
         id="path70"
         d="M 118.37499,1749.4667 V 526.59943 c 0,-13.35016 0.65457,-26.66813 1.96372,-39.95398 1.30913,-13.28586 3.26652,-26.47559 5.87218,-39.56925 2.60567,-13.0936 5.84706,-26.02804 9.72415,-38.80334 3.87709,-12.7753 8.37125,-25.3299 13.48244,-37.66382 5.11119,-12.33389 10.81483,-24.38776 17.11092,-36.16153 6.29606,-11.77377 13.15425,-23.21075 20.57455,-34.311 7.4203,-11.10022 15.36701,-21.81022 23.84009,-32.13001 8.4731,-10.31982 17.43176,-20.19971 26.87602,-29.63968 9.44428,-9.43996 19.32865,-18.39456 29.65314,-26.86381 10.32449,-8.46923 21.03934,-16.41233 32.14459,-23.82927 11.10532,-7.41693 22.54752,-14.27201 34.32663,-20.56522 11.77911,-6.2932 23.83841,-11.99425 36.17792,-17.10313 12.33954,-5.10888 24.89987,-9.60097 37.68097,-13.47631 12.78106,-3.87533 25.72137,-7.11525 38.82095,-9.71974 13.09961,-2.60447 26.29535,-4.56098 39.58725,-5.86953 13.2919,-1.30854 26.61591,-1.9628 39.97211,-1.96281 H 3411.0305 c 13.3562,1e-5 26.6804,0.65428 39.9724,1.96282 13.2918,1.30854 26.4871,3.26505 39.5865,5.86953 13.0998,2.60448 26.0402,5.8444 38.8212,9.71975 12.7811,3.87533 25.3411,8.36743 37.6805,13.4763 12.3396,5.10887 24.3991,10.80992 36.1782,17.10312 11.779,6.29321 23.2212,13.14829 34.3264,20.56522 11.1055,7.41694 21.8206,15.36004 32.145,23.82927 10.3245,8.46925 20.209,17.42385 29.6531,26.86383 9.4443,9.43997 18.4031,19.31987 26.876,29.63966 8.4731,10.31979 16.4197,21.02979 23.8398,32.13001 7.4207,11.10025 14.2788,22.53723 20.5747,34.311 6.2962,11.77377 11.9998,23.82764 17.1109,36.16153 5.1113,12.33392 9.6054,24.88852 13.4826,37.66382 3.8772,12.7753 7.1184,25.70978 9.7239,38.80337 2.606,13.09363 4.5635,26.28336 5.8728,39.56922 1.3091,13.28585 1.9636,26.60382 1.9636,39.95398 V 1749.4667 c 0,13.3501 -0.6545,26.6681 -1.9636,39.954 -1.3093,13.2857 -3.2668,26.4754 -5.8728,39.569 -2.6055,13.0937 -5.8467,26.0282 -9.7239,38.8035 -3.8772,12.7753 -8.3713,25.3297 -13.4826,37.6636 -5.1111,12.334 -10.8147,24.3878 -17.1109,36.1615 -6.2959,11.7739 -13.154,23.2109 -20.5747,34.311 -7.4201,11.1002 -15.3667,21.8103 -23.8398,32.1303 -8.4729,10.3198 -17.4317,20.1997 -26.876,29.6396 -9.4441,9.44 -19.3284,18.3946 -29.6528,26.864 -10.3247,8.469 -21.0398,16.4121 -32.1453,23.8289 -11.1052,7.4167 -22.5476,14.272 -34.3267,20.5652 -11.779,6.2934 -23.8383,11.9946 -36.1779,17.1032 -12.3394,5.1092 -24.8997,9.6014 -37.6807,13.4766 -12.781,3.8753 -25.7212,7.115 -38.821,9.7195 -13.0994,2.6047 -26.295,4.5613 -39.5867,5.8699 -13.2918,1.3083 -26.616,1.9626 -39.9722,1.9626 H 526.18262 c -13.3562,0 -26.68021,-0.6543 -39.97211,-1.9626 -13.2919,-1.3086 -26.48764,-3.2652 -39.58725,-5.8699 -13.09958,-2.6045 -26.03989,-5.8442 -38.82098,-9.7195 -12.7811,-3.8752 -25.3414,-8.3674 -37.68091,-13.4766 -12.33951,-5.1086 -24.39884,-10.8098 -36.17795,-17.1032 -11.77911,-6.2932 -23.22131,-13.1485 -34.32663,-20.5652 -11.10525,-7.4168 -21.8201,-15.3599 -32.14459,-23.8289 -10.32446,-8.4694 -20.20885,-17.424 -29.65312,-26.864 -9.44426,-9.4399 -18.40294,-19.3198 -26.87601,-29.6395 -8.4731,-10.32 -16.41982,-21.03 -23.84012,-32.1303 -7.4203,-11.1002 -14.27849,-22.5372 -20.57455,-34.311 -6.29607,-11.7738 -11.99971,-23.8276 -17.1109,-36.1616 -5.1112,-12.3339 -9.60535,-24.8884 -13.48246,-37.6637 -3.87709,-12.7753 -7.11848,-25.7097 -9.72414,-38.8034 -2.60567,-13.0936 -4.56306,-26.2833 -5.87219,-39.569 -1.30915,-13.2859 -1.96372,-26.6039 -1.96372,-39.954 z" /></clipPath><clipPath
       id="clipPath86"
       clipPathUnits="userSpaceOnUse"><path
         id="path84"
         d="M 0,0 H 3945.833 V 2252.5303 H 0 Z" /></clipPath><clipPath
       id="clipPath92"
       clipPathUnits="userSpaceOnUse"><path
         id="path90"
         d="M 0,0 H 3945.833 V 2255.6543 H 0 Z" /></clipPath><clipPath
       id="clipPath98"
       clipPathUnits="userSpaceOnUse"><path
         id="path96"
         d="M 230.93901,703.83795 H 3702.4173 V 2025.596 H 230.93901 Z" /></clipPath><clipPath
       id="clipPath104"
       clipPathUnits="userSpaceOnUse"><path
         id="path102"
         d="M 230.93901,1761.2444 V 968.18958 c 0,-8.65784 0.4245,-17.2948 1.2735,-25.91095 0.849,-8.61622 2.11841,-17.17005 3.80823,-25.66156 1.68983,-8.49146 3.79193,-16.8797 6.30632,-25.1648 2.51437,-8.28497 5.42891,-16.42694 8.74362,-24.42578 3.31474,-7.99878 7.01367,-15.81592 11.0968,-23.45148 4.0831,-7.63556 8.53076,-15.05267 13.34299,-22.2514 4.81222,-7.19867 9.96582,-14.14435 15.46078,-20.83698 5.49503,-6.69262 11.3049,-13.09997 17.42969,-19.22198 6.12479,-6.12201 12.53503,-11.9292 19.23068,-17.42169 6.69565,-5.4925 13.64447,-10.6438 20.84647,-15.45386 7.20202,-4.81 14.62253,-9.25562 22.26153,-13.33691 7.63901,-4.08124 15.45972,-7.77851 23.46213,-11.0918 8.00247,-3.31317 16.1481,-6.22638 24.43689,-8.73963 8.28882,-2.51324 16.68088,-4.61438 25.17621,-6.30346 8.49536,-1.68903 17.0531,-2.95783 25.67319,-3.8064 8.62005,-0.84857 17.26095,-1.27289 25.92273,-1.27295 H 3437.9456 c 8.6618,6e-5 17.3027,0.42438 25.9226,1.27295 8.6201,0.84863 17.1777,2.11743 25.6731,3.80646 8.4953,1.68909 16.8877,3.79022 25.1765,6.30347 8.2888,2.51324 16.4341,5.42639 24.4363,8.73956 8.0026,3.31329 15.8234,7.01056 23.4624,11.0918 7.6389,4.08129 15.0593,8.52691 22.2612,13.33691 7.2019,4.81006 14.1509,9.96136 20.8467,15.45386 6.6955,5.49249 13.1057,11.29974 19.2304,17.42175 6.125,6.12201 11.9348,12.52936 17.4297,19.22192 5.4949,6.69263 10.6485,13.63831 15.4607,20.83698 4.8123,7.19873 9.26,14.61584 13.3433,22.2514 4.0832,7.63556 7.782,15.4527 11.0967,23.45148 3.3149,7.99884 6.2294,16.14081 8.7439,24.42578 2.5144,8.2851 4.6164,16.67334 6.3061,25.1648 1.6899,8.49151 2.9595,17.04534 3.8084,25.66156 0.8491,8.61615 1.2736,17.25311 1.2736,25.91095 v 793.05482 c 0,8.6579 -0.4245,17.295 -1.2736,25.9111 -0.8489,8.6161 -2.1185,17.1699 -3.8084,25.6613 -1.6897,8.4915 -3.7917,16.8797 -6.3061,25.1648 -2.5142,8.285 -5.4288,16.4268 -8.7437,24.4256 -3.3147,7.9989 -7.0137,15.8162 -11.0967,23.4517 -4.0832,7.6354 -8.5312,15.0525 -13.3435,22.2512 -4.8122,7.1987 -9.9656,14.1444 -15.4604,20.837 -5.4949,6.6927 -11.305,13.1 -17.43,19.222 -6.1247,6.122 -12.5349,11.9293 -19.2304,17.4217 -6.6958,5.4926 -13.6448,10.6437 -20.8467,15.4536 -7.2019,4.8101 -14.6223,9.2558 -22.2612,13.3372 -7.639,4.0812 -15.4598,7.7784 -23.4624,11.0915 -8.0022,3.3134 -16.1478,6.2267 -24.4366,8.7399 -8.2888,2.5133 -16.6809,4.6144 -25.1765,6.3032 -8.4951,1.6892 -17.0527,2.9582 -25.6728,3.8068 -8.6199,0.8486 -17.2608,1.2729 -25.9226,1.2729 H 495.41077 c -8.66178,0 -17.30268,-0.4241 -25.92273,-1.2727 -8.62009,-0.8487 -17.17783,-2.1178 -25.67319,-3.8068 -8.49533,-1.689 -16.88739,-3.7901 -25.17618,-6.3034 -8.28882,-2.5132 -16.43445,-5.4265 -24.43692,-8.7399 -8.00241,-3.3131 -15.82312,-7.0103 -23.46213,-11.0915 -7.639,-4.0814 -15.05951,-8.5271 -22.26153,-13.3372 -7.202,-4.8099 -14.15082,-9.9611 -20.84647,-15.4537 -6.69565,-5.4923 -13.10589,-11.2996 -19.23068,-17.4216 -6.12479,-6.122 -11.93466,-12.5293 -17.42966,-19.2218 -5.49496,-6.6928 -10.64859,-13.6385 -15.46081,-20.8372 -4.81223,-7.1987 -9.25989,-14.6158 -13.34299,-22.2513 -4.08313,-7.6354 -7.78206,-15.4527 -11.09679,-23.4516 -3.31471,-7.9988 -6.22924,-16.1406 -8.74362,-24.4256 -2.51439,-8.2851 -4.6165,-16.6733 -6.30633,-25.1648 -1.68982,-8.4914 -2.95923,-17.0452 -3.80823,-25.6613 -0.849,-8.6161 -1.2735,-17.2532 -1.2735,-25.9111 z" /></clipPath><clipPath
       id="clipPath118"
       clipPathUnits="userSpaceOnUse"><path
         id="path116"
         d="M 0,0 H 3945.833 V 2252.5303 H 0 Z" /></clipPath><clipPath
       id="clipPath124"
       clipPathUnits="userSpaceOnUse"><path
         id="path122"
         d="M 0,0 H 3945.833 V 2255.6543 H 0 Z" /></clipPath><clipPath
       id="clipPath130"
       clipPathUnits="userSpaceOnUse"><path
         id="path128"
         d="M 371.15201,1285.2327 H 3575.4643 v 612.3119 H 371.15201 Z" /></clipPath><clipPath
       id="clipPath136"
       clipPathUnits="userSpaceOnUse"><path
         id="path134"
         d="m 371.15201,1775.0822 v -367.3871 c -3e-5,-8.0412 0.78467,-16.0049 2.35409,-23.8914 1.56943,-7.8865 3.89341,-15.5442 6.97196,-22.9731 3.07855,-7.4289 6.85254,-14.4862 11.32193,-21.172 4.46936,-6.6859 9.54825,-12.8717 15.23669,-18.5575 5.68842,-5.6859 11.87708,-10.7626 18.56595,-15.23 6.68887,-4.4674 13.74945,-8.2396 21.18173,-11.3168 7.43228,-3.077 15.09345,-5.4 22.98355,-6.9687 7.89011,-1.5686 15.85749,-2.3529 23.90213,-2.3529 H 3452.9463 c 8.0447,0 16.0117,0.7843 23.9016,2.353 7.8899,1.5687 15.551,3.8916 22.9834,6.9686 7.4324,3.0772 14.4929,6.8494 21.1819,11.3168 6.6889,4.4674 12.8777,9.5441 18.5661,15.23 5.6883,5.6858 10.7671,11.8716 15.2366,18.5575 4.4695,6.6858 8.2434,13.7431 11.322,21.172 3.0784,7.4289 5.4024,15.0866 6.972,22.9731 1.5695,7.8865 2.3542,15.8502 2.3545,23.8914 v 367.3871 c -3e-4,8.0408 -0.785,16.0045 -2.3543,23.8908 -1.5696,7.8865 -3.8938,15.5442 -6.9724,22.973 -3.0784,7.4289 -6.8523,14.4863 -11.3218,21.1722 -4.4695,6.6859 -9.5483,12.8718 -15.2366,18.5577 -5.6884,5.6857 -11.8772,10.7622 -18.5661,15.2296 -6.689,4.4673 -13.7495,8.2395 -21.1817,11.3168 -7.4323,3.0773 -15.0935,5.4003 -22.9834,6.969 -7.8898,1.5687 -15.8571,2.3531 -23.9018,2.3533 H 493.67004 c -8.04464,-2e-4 -16.01205,-0.7846 -23.90216,-2.3533 -7.89007,-1.5687 -15.55127,-3.8917 -22.98355,-6.969 -7.43228,-3.0773 -14.49286,-6.8495 -21.18176,-11.3168 -6.68884,-4.4674 -12.87747,-9.5439 -18.56589,-15.2296 -5.68844,-5.6859 -10.76733,-11.8718 -15.23672,-18.5577 -4.46939,-6.6859 -8.24335,-13.7433 -11.3219,-21.1722 -3.07855,-7.4288 -5.40253,-15.0865 -6.97196,-22.973 -1.56942,-7.8863 -2.35412,-15.85 -2.35409,-23.8908 z" /></clipPath><clipPath
       id="clipPath150"
       clipPathUnits="userSpaceOnUse"><path
         style="clip-rule:evenodd"
         id="path148"
         d="M 0,0 H 3945.833 V 2252.5303 H 0 Z" /></clipPath></defs><g
     transform="matrix(0.31999998,0,0,0.31999998,0,2.1365332e-5)"
     id="g10"><g
       id="g12"><g
         clip-path="url(#clipPath18)"
         id="g14"><g
           transform="scale(3.1241751)"
           id="g20"><path
             id="path22"
             style="fill:#ffffff;fill-opacity:1;fill-rule:nonzero;stroke:none"
             d="M 0,0 H 1263 V 722 H 0 Z" /></g></g></g><g
       id="g24"><g
         clip-path="url(#clipPath30)"
         id="g26"><g
           transform="scale(3.1241751,3.122756)"
           id="g32"><path
             id="path34"
             style="fill:#f2f2f2;fill-opacity:1;fill-rule:nonzero;stroke:none"
             d="M 0,0 H 1263 V 722.32813 H 0 Z" /></g></g></g><g
       id="g36"><g
         clip-path="url(#clipPath42)"
         id="g38"><g
           transform="scale(4.1454263,4.1435018)"
           id="g44"><path
             id="path46"
             style="fill:#ffffff;fill-opacity:1;fill-rule:nonzero;stroke:none"
             d="M 0,0 H 951.85608 V 544.38324 H 0 Z" /></g></g></g><g
       id="g48"><g
         clip-path="url(#clipPath54)"
         id="g50"><g
           clip-path="url(#clipPath60)"
           id="g56"><g
             clip-path="url(#clipPath66)"
             id="g62"><g
               clip-path="url(#clipPath72)"
               id="g68"><g
                 transform="matrix(4.1454096,0,0,4.1435266,118.37499,118.977)"
                 id="g74"><path
                   id="path76"
                   style="fill:#c4c4c4;fill-opacity:1;fill-rule:evenodd;stroke:none"
                   d="M 98.375717,0 H 794.28955 c 1.60999,0 3.21899,0.03949927 4.82709,0.11849784 1.60809,0.0789986 3.21319,0.19740123 4.81543,0.35520808 1.60217,0.15780684 3.19958,0.35482761 4.79217,0.59106248 1.59247,0.2362348 3.17829,0.5113992 4.75739,0.8254931 1.57904,0.3140937 3.14947,0.6667389 4.71118,1.0579351 1.56171,0.3911961 3.11292,0.8204721 4.65363,1.2878283 1.54071,0.4673562 3.06897,0.972229 4.58477,1.5146188 1.51593,0.5423904 3.01758,1.1216441 4.50501,1.7377611 1.48743,0.616117 2.95886,1.2683558 4.41424,1.956717 1.45539,0.6883602 2.89307,1.4120132 4.31299,2.1709582 1.41986,0.758945 2.82025,1.552267 4.20117,2.379968 1.38092,0.827702 2.74073,1.688785 4.07941,2.583248 1.33862,0.894465 2.65454,1.821232 3.94775,2.780302 1.29316,0.95907 2.56208,1.949291 3.80665,2.970659 1.24456,1.021368 2.46325,2.072655 3.65612,3.153861 1.19294,1.081205 2.35865,2.191024 3.49713,3.329462 1.13843,1.138437 2.24823,2.304117 3.32941,3.497043 1.08124,1.192925 2.13251,2.411659 3.15393,3.656201 1.02136,1.244541 2.0116,2.513389 2.97064,3.806545 0.95905,1.293156 1.88581,2.609066 2.78028,3.947727 0.89447,1.338657 1.75549,2.698456 2.58319,4.079392 0.8277,1.380939 1.62103,2.781353 2.38,4.20124 0.75898,1.419884 1.48261,2.857533 2.17096,4.31295 0.68836,1.455414 1.34058,2.926838 1.95673,4.414276 0.61609,1.487439 1.19531,2.989098 1.73773,4.504971 0.54242,1.515884 1.0473,3.044159 1.51471,4.584831 0.46735,1.540665 0.89661,3.091866 1.28778,4.65361 0.39118,1.561745 0.74384,3.132141 1.05792,4.711197 0.31409,1.579056 0.5893,3.164871 0.82556,4.757439 0.23621,1.592567 0.43323,3.189979 0.59107,4.792221 0.15778,1.602234 0.27618,3.207375 0.35516,4.815422 0.079,1.608055 0.11853,3.217079 0.11853,4.827072 V 393.50287 c 0,1.60998 -0.0395,3.21902 -0.11853,4.82709 -0.079,1.60803 -0.19738,3.21316 -0.35516,4.81543 -0.15784,1.60223 -0.35486,3.19961 -0.59113,4.79217 -0.23626,1.59256 -0.51141,3.17838 -0.8255,4.75745 -0.31408,1.57907 -0.66674,3.14947 -1.05792,4.71121 -0.39117,1.56174 -0.82043,3.11295 -1.28778,4.65362 -0.46741,1.54065 -0.97229,3.06891 -1.51471,4.58478 -0.54242,1.51587 -1.1217,3.01752 -1.73779,4.50498 -0.61615,1.48742 -1.26837,2.95886 -1.95673,4.41427 -0.68829,1.45542 -1.41192,2.89307 -2.1709,4.31296 -0.75897,1.41989 -1.55224,2.82031 -2.37994,4.20126 -0.8277,1.38092 -1.68878,2.74073 -2.58325,4.07938 -0.89447,1.33865 -1.82129,2.65457 -2.78034,3.94772 -0.95904,1.29313 -1.94922,2.56199 -2.97058,3.80652 -1.02142,1.24454 -2.07269,2.46329 -3.15393,3.65619 -1.08124,1.19296 -2.19104,2.35864 -3.32947,3.4971 -1.13842,1.13843 -2.30407,2.24826 -3.49701,3.32947 -1.19293,1.08121 -2.41162,2.13251 -3.65618,3.15387 -1.24457,1.02136 -2.51349,2.0116 -3.80665,2.97067 -1.29321,0.95905 -2.60913,1.88581 -3.94775,2.78028 -1.33868,0.89447 -2.69849,1.75555 -4.07941,2.58328 -1.38092,0.8277 -2.78131,1.62103 -4.20117,2.37997 -1.41992,0.75894 -2.8576,1.48258 -4.31299,2.17093 -1.45538,0.68839 -2.92681,1.34061 -4.41424,1.95673 -1.48743,0.61612 -2.98908,1.19537 -4.50501,1.73776 -1.5158,0.54239 -3.04406,1.04727 -4.58477,1.51465 -1.54071,0.46734 -3.09192,0.89661 -4.65363,1.28781 -1.56171,0.39117 -3.13214,0.7438 -4.71118,1.05789 -1.5791,0.31412 -3.16492,0.5893 -4.75739,0.82553 -1.59259,0.23624 -3.19,0.43326 -4.79217,0.59107 -1.60224,0.1578 -3.20734,0.27618 -4.81543,0.35516 -1.6081,0.079 -3.2171,0.1185 -4.82709,0.11853 H 98.375717 c -1.609993,-3e-5 -3.219017,-0.0395 -4.827072,-0.11853 -1.608055,-0.079 -3.213196,-0.19736 -4.81543,-0.35516 -1.602241,-0.15781 -3.199646,-0.35483 -4.792213,-0.59107 -1.592568,-0.23623 -3.178383,-0.51141 -4.757439,-0.82553 -1.579056,-0.31412 -3.149452,-0.66675 -4.711197,-1.05795 -1.561744,-0.39121 -3.112945,-0.8205 -4.65361,-1.28781 -1.540672,-0.46738 -3.068947,-0.97226 -4.584831,-1.51465 -1.515873,-0.54239 -3.017532,-1.12164 -4.504971,-1.73776 -1.487438,-0.61612 -2.958862,-1.26834 -4.414276,-1.9567 -1.455417,-0.68832 -2.893066,-1.41196 -4.31295,-2.1709 -1.419887,-0.75894 -2.820301,-1.55227 -4.201237,-2.37997 -1.380939,-0.82773 -2.740738,-1.68881 -4.079395,-2.58328 -1.338661,-0.89447 -2.654571,-1.82123 -3.947727,-2.78031 -1.293156,-0.95907 -2.562004,-1.94931 -3.806545,-2.97067 -1.244542,-1.02136 -2.463276,-2.07263 -3.656201,-3.15384 -1.192926,-1.08121 -2.358606,-2.19104 -3.497043,-3.32947 -1.138438,-1.13846 -2.248257,-2.30414 -3.329462,-3.49707 -1.081206,-1.1929 -2.132493,-2.41165 -3.153861,-3.65619 -1.021368,-1.24453 -2.011589,-2.51339 -2.970659,-3.80658 -0.95907,-1.29312 -1.885837,-2.60904 -2.780302,-3.94769 -0.894463,-1.33865 -1.755546,-2.69846 -2.583248,-4.07938 -0.827701,-1.38095 -1.621023,-2.78137 -2.379968,-4.20126 -0.758945,-1.41989 -1.482598,-2.85751 -2.1709582,-4.31293 -0.6883612,-1.45544 -1.3406,-2.92688 -1.956717,-4.4143 -0.616117,-1.48746 -1.1953707,-2.98911 -1.7377611,-4.50498 -0.5423898,-1.51587 -1.0472626,-3.04413 -1.5146188,-4.58478 -0.4673562,-1.54067 -0.8966325,-3.09188 -1.2878285,-4.65362 -0.391196,-1.56174 -0.7438412,-3.13214 -1.0579349,-4.71121 -0.3140939,-1.57907 -0.5892583,-3.16486 -0.8254931,-4.75742 -0.23623487,-1.59256 -0.43325564,-3.18997 -0.59106248,-4.7922 -0.15780685,-1.60227 -0.27620951,-3.2074 -0.35520808,-4.81546 C 0.03949927,396.72186 0,395.11285 0,393.50287 V 98.375717 c 0,-1.609993 0.03949927,-3.219017 0.11849784,-4.827072 0.0789986,-1.608055 0.19740123,-3.213196 0.35520808,-4.81543 0.15780684,-1.602241 0.35482761,-3.199646 0.59106248,-4.792213 0.2362348,-1.592568 0.5113992,-3.178383 0.8254931,-4.757439 0.3140937,-1.579056 0.6667389,-3.149452 1.0579351,-4.711197 0.3911961,-1.561744 0.8204721,-3.112945 1.2878283,-4.65361 0.4673562,-1.540672 0.972229,-3.068947 1.5146188,-4.584831 0.5423904,-1.515873 1.1216441,-3.017532 1.7377611,-4.504971 0.616117,-1.487438 1.2683558,-2.958862 1.956717,-4.414276 0.6883602,-1.455417 1.4120132,-2.893066 2.1709582,-4.31295 0.758945,-1.419887 1.552267,-2.820301 2.379968,-4.201237 0.827702,-1.380939 1.688785,-2.740738 2.583248,-4.079395 0.894465,-1.338661 1.821232,-2.654571 2.780302,-3.947727 0.95907,-1.293156 1.949291,-2.562004 2.970659,-3.806545 1.021368,-1.244542 2.072655,-2.463276 3.153861,-3.656201 1.081205,-1.192926 2.191024,-2.358606 3.329462,-3.497043 1.138437,-1.138438 2.304117,-2.248257 3.497043,-3.329462 1.192925,-1.081206 2.411659,-2.132493 3.656201,-3.153861 1.244541,-1.021368 2.513389,-2.011589 3.806545,-2.970659 1.293156,-0.95907 2.609066,-1.885837 3.947727,-2.780302 1.338657,-0.894463 2.698456,-1.755546 4.079392,-2.583248 1.380939,-0.827701 2.781353,-1.621023 4.20124,-2.379968 1.419884,-0.758945 2.857533,-1.482598 4.31295,-2.1709582 1.455414,-0.6883612 2.926838,-1.3406 4.414276,-1.956717 1.487439,-0.616117 2.989098,-1.1953707 4.504971,-1.7377611 1.515884,-0.5423898 3.044159,-1.0472626 4.584831,-1.5146188 1.540665,-0.4673562 3.091866,-0.8966325 4.65361,-1.2878285 1.561745,-0.391196 3.132141,-0.7438412 4.711197,-1.0579349 C 80.762619,1.5761676 82.348434,1.3010032 83.941002,1.0647684 85.533569,0.82853353 87.130981,0.63151276 88.733223,0.47370592 90.335457,0.31589907 91.940598,0.19749641 93.548645,0.11849784 95.1567,0.03949927 96.765724,0 98.375717,0 Z" /><path
                   id="path78"
                   style="fill:none;stroke:#1a1a1a;stroke-width:1;stroke-linecap:butt;stroke-linejoin:miter;stroke-miterlimit:10;stroke-dasharray:none;stroke-opacity:1"
                   d="M 98.375717,0 H 794.28955 c 1.60999,0 3.21899,0.03949927 4.82709,0.11849784 1.60809,0.0789986 3.21319,0.19740123 4.81543,0.35520808 1.60217,0.15780684 3.19958,0.35482761 4.79217,0.59106248 1.59247,0.2362348 3.17829,0.5113992 4.75739,0.8254931 1.57904,0.3140937 3.14947,0.6667389 4.71118,1.0579351 1.56171,0.3911961 3.11292,0.8204721 4.65363,1.2878283 1.54071,0.4673562 3.06897,0.972229 4.58477,1.5146188 1.51593,0.5423904 3.01758,1.1216441 4.50501,1.7377611 1.48743,0.616117 2.95886,1.2683558 4.41424,1.956717 1.45539,0.6883602 2.89307,1.4120132 4.31299,2.1709582 1.41986,0.758945 2.82025,1.552267 4.20117,2.379968 1.38092,0.827702 2.74073,1.688785 4.07941,2.583248 1.33862,0.894465 2.65454,1.821232 3.94775,2.780302 1.29316,0.95907 2.56208,1.949291 3.80665,2.970659 1.24456,1.021368 2.46325,2.072655 3.65612,3.153861 1.19294,1.081205 2.35865,2.191024 3.49713,3.329462 1.13843,1.138437 2.24823,2.304117 3.32941,3.497043 1.08124,1.192925 2.13251,2.411659 3.15393,3.656201 1.02136,1.244541 2.0116,2.513389 2.97064,3.806545 0.95905,1.293156 1.88581,2.609066 2.78028,3.947727 0.89447,1.338657 1.75549,2.698456 2.58319,4.079392 0.8277,1.380939 1.62103,2.781353 2.38,4.20124 0.75898,1.419884 1.48261,2.857533 2.17096,4.31295 0.68836,1.455414 1.34058,2.926838 1.95673,4.414276 0.61609,1.487439 1.19531,2.989098 1.73773,4.504971 0.54242,1.515884 1.0473,3.044159 1.51471,4.584831 0.46735,1.540665 0.89661,3.091866 1.28778,4.65361 0.39118,1.561745 0.74384,3.132141 1.05792,4.711197 0.31409,1.579056 0.5893,3.164871 0.82556,4.757439 0.23621,1.592567 0.43323,3.189979 0.59107,4.792221 0.15778,1.602234 0.27618,3.207375 0.35516,4.815422 0.079,1.608055 0.11853,3.217079 0.11853,4.827072 V 393.50287 c 0,1.60998 -0.0395,3.21902 -0.11853,4.82709 -0.079,1.60803 -0.19738,3.21316 -0.35516,4.81543 -0.15784,1.60223 -0.35486,3.19961 -0.59113,4.79217 -0.23626,1.59256 -0.51141,3.17838 -0.8255,4.75745 -0.31408,1.57907 -0.66674,3.14947 -1.05792,4.71121 -0.39117,1.56174 -0.82043,3.11295 -1.28778,4.65362 -0.46741,1.54065 -0.97229,3.06891 -1.51471,4.58478 -0.54242,1.51587 -1.1217,3.01752 -1.73779,4.50498 -0.61615,1.48742 -1.26837,2.95886 -1.95673,4.41427 -0.68829,1.45542 -1.41192,2.89307 -2.1709,4.31296 -0.75897,1.41989 -1.55224,2.82031 -2.37994,4.20126 -0.8277,1.38092 -1.68878,2.74073 -2.58325,4.07938 -0.89447,1.33865 -1.82129,2.65457 -2.78034,3.94772 -0.95904,1.29313 -1.94922,2.56199 -2.97058,3.80652 -1.02142,1.24454 -2.07269,2.46329 -3.15393,3.65619 -1.08124,1.19296 -2.19104,2.35864 -3.32947,3.4971 -1.13842,1.13843 -2.30407,2.24826 -3.49701,3.32947 -1.19293,1.08121 -2.41162,2.13251 -3.65618,3.15387 -1.24457,1.02136 -2.51349,2.0116 -3.80665,2.97067 -1.29321,0.95905 -2.60913,1.88581 -3.94775,2.78028 -1.33868,0.89447 -2.69849,1.75555 -4.07941,2.58328 -1.38092,0.8277 -2.78131,1.62103 -4.20117,2.37997 -1.41992,0.75894 -2.8576,1.48258 -4.31299,2.17093 -1.45538,0.68839 -2.92681,1.34061 -4.41424,1.95673 -1.48743,0.61612 -2.98908,1.19537 -4.50501,1.73776 -1.5158,0.54239 -3.04406,1.04727 -4.58477,1.51465 -1.54071,0.46734 -3.09192,0.89661 -4.65363,1.28781 -1.56171,0.39117 -3.13214,0.7438 -4.71118,1.05789 -1.5791,0.31412 -3.16492,0.5893 -4.75739,0.82553 -1.59259,0.23624 -3.19,0.43326 -4.79217,0.59107 -1.60224,0.1578 -3.20734,0.27618 -4.81543,0.35516 -1.6081,0.079 -3.2171,0.1185 -4.82709,0.11853 H 98.375717 c -1.609993,-3e-5 -3.219017,-0.0395 -4.827072,-0.11853 -1.608055,-0.079 -3.213196,-0.19736 -4.81543,-0.35516 -1.602241,-0.15781 -3.199646,-0.35483 -4.792213,-0.59107 -1.592568,-0.23623 -3.178383,-0.51141 -4.757439,-0.82553 -1.579056,-0.31412 -3.149452,-0.66675 -4.711197,-1.05795 -1.561744,-0.39121 -3.112945,-0.8205 -4.65361,-1.28781 -1.540672,-0.46738 -3.068947,-0.97226 -4.584831,-1.51465 -1.515873,-0.54239 -3.017532,-1.12164 -4.504971,-1.73776 -1.487438,-0.61612 -2.958862,-1.26834 -4.414276,-1.9567 -1.455417,-0.68832 -2.893066,-1.41196 -4.31295,-2.1709 -1.419887,-0.75894 -2.820301,-1.55227 -4.201237,-2.37997 -1.380939,-0.82773 -2.740738,-1.68881 -4.079395,-2.58328 -1.338661,-0.89447 -2.654571,-1.82123 -3.947727,-2.78031 -1.293156,-0.95907 -2.562004,-1.94931 -3.806545,-2.97067 -1.244542,-1.02136 -2.463276,-2.07263 -3.656201,-3.15384 -1.192926,-1.08121 -2.358606,-2.19104 -3.497043,-3.32947 -1.138438,-1.13846 -2.248257,-2.30414 -3.329462,-3.49707 -1.081206,-1.1929 -2.132493,-2.41165 -3.153861,-3.65619 -1.021368,-1.24453 -2.011589,-2.51339 -2.970659,-3.80658 -0.95907,-1.29312 -1.885837,-2.60904 -2.780302,-3.94769 -0.894463,-1.33865 -1.755546,-2.69846 -2.583248,-4.07938 -0.827701,-1.38095 -1.621023,-2.78137 -2.379968,-4.20126 -0.758945,-1.41989 -1.482598,-2.85751 -2.1709582,-4.31293 -0.6883612,-1.45544 -1.3406,-2.92688 -1.956717,-4.4143 -0.616117,-1.48746 -1.1953707,-2.98911 -1.7377611,-4.50498 -0.5423898,-1.51587 -1.0472626,-3.04413 -1.5146188,-4.58478 -0.4673562,-1.54067 -0.8966325,-3.09188 -1.2878285,-4.65362 -0.391196,-1.56174 -0.7438412,-3.13214 -1.0579349,-4.71121 -0.3140939,-1.57907 -0.5892583,-3.16486 -0.8254931,-4.75742 -0.23623487,-1.59256 -0.43325564,-3.18997 -0.59106248,-4.7922 -0.15780685,-1.60227 -0.27620951,-3.2074 -0.35520808,-4.81546 C 0.03949927,396.72186 0,395.11285 0,393.50287 V 98.375717 c 0,-1.609993 0.03949927,-3.219017 0.11849784,-4.827072 0.0789986,-1.608055 0.19740123,-3.213196 0.35520808,-4.81543 0.15780684,-1.602241 0.35482761,-3.199646 0.59106248,-4.792213 0.2362348,-1.592568 0.5113992,-3.178383 0.8254931,-4.757439 0.3140937,-1.579056 0.6667389,-3.149452 1.0579351,-4.711197 0.3911961,-1.561744 0.8204721,-3.112945 1.2878283,-4.65361 0.4673562,-1.540672 0.972229,-3.068947 1.5146188,-4.584831 0.5423904,-1.515873 1.1216441,-3.017532 1.7377611,-4.504971 0.616117,-1.487438 1.2683558,-2.958862 1.956717,-4.414276 0.6883602,-1.455417 1.4120132,-2.893066 2.1709582,-4.31295 0.758945,-1.419887 1.552267,-2.820301 2.379968,-4.201237 0.827702,-1.380939 1.688785,-2.740738 2.583248,-4.079395 0.894465,-1.338661 1.821232,-2.654571 2.780302,-3.947727 0.95907,-1.293156 1.949291,-2.562004 2.970659,-3.806545 1.021368,-1.244542 2.072655,-2.463276 3.153861,-3.656201 1.081205,-1.192926 2.191024,-2.358606 3.329462,-3.497043 1.138437,-1.138438 2.304117,-2.248257 3.497043,-3.329462 1.192925,-1.081206 2.411659,-2.132493 3.656201,-3.153861 1.244541,-1.021368 2.513389,-2.011589 3.806545,-2.970659 1.293156,-0.95907 2.609066,-1.885837 3.947727,-2.780302 1.338657,-0.894463 2.698456,-1.755546 4.079392,-2.583248 1.380939,-0.827701 2.781353,-1.621023 4.20124,-2.379968 1.419884,-0.758945 2.857533,-1.482598 4.31295,-2.1709582 1.455414,-0.6883612 2.926838,-1.3406 4.414276,-1.956717 1.487439,-0.616117 2.989098,-1.1953707 4.504971,-1.7377611 1.515884,-0.5423898 3.044159,-1.0472626 4.584831,-1.5146188 1.540665,-0.4673562 3.091866,-0.8966325 4.65361,-1.2878285 1.561745,-0.391196 3.132141,-0.7438412 4.711197,-1.0579349 C 80.762619,1.5761676 82.348434,1.3010032 83.941002,1.0647684 85.533569,0.82853353 87.130981,0.63151276 88.733223,0.47370592 90.335457,0.31589907 91.940598,0.19749641 93.548645,0.11849784 95.1567,0.03949927 96.765724,0 98.375717,0 Z" /></g></g></g></g></g></g><g
       id="g80"><g
         clip-path="url(#clipPath86)"
         id="g82"><g
           clip-path="url(#clipPath92)"
           id="g88"><g
             clip-path="url(#clipPath98)"
             id="g94"><g
               clip-path="url(#clipPath104)"
               id="g100"><g
                 transform="matrix(4.1454096,0,0,4.1435266,230.93901,703.83795)"
                 id="g106"><path
                   id="path108"
                   style="fill:#e6e6e6;fill-opacity:1;fill-rule:evenodd;stroke:none"
                   d="M 63.798702,0 H 773.62836 c 1.04413,0 2.08758,0.02561611 3.13043,0.07684833 1.04291,0.05123222 2.08386,0.12801882 3.12292,0.23035985 1.03913,0.102341 2.07502,0.23011309 3.10779,0.38331634 1.03278,0.15320325 2.06122,0.33165308 3.08527,0.53534958 1.02398,0.2036963 2.04242,0.432394 3.05523,0.6860928 1.01288,0.253699 2.01886,0.5320934 3.01807,0.8351835 0.99915,0.3030901 1.9903,0.6305106 2.97339,0.9822617 0.98303,0.3517518 1.95685,0.7274098 2.92151,1.1269746 0.96466,0.3995652 1.91888,0.8225555 2.86273,1.2689714 0.94391,0.4464159 1.87622,0.91572 2.79706,1.4079118 0.92084,0.4921913 1.82898,1.0066776 2.72449,1.5434599 0.89556,0.5367803 1.7774,1.0952102 2.64556,1.6752892 0.86811,0.580078 1.7215,1.181106 2.56012,1.803084 0.83869,0.621978 1.66163,1.264156 2.46875,1.926535 0.80713,0.662379 1.59748,1.34416 2.3711,2.045343 0.77368,0.701184 1.52966,1.420925 2.268,2.159226 0.73835,0.738298 1.45807,1.494266 2.15924,2.267904 0.70118,0.773638 1.38294,1.564013 2.04535,2.371124 0.66242,0.80711 1.30457,1.629984 1.92652,2.468624 0.62195,0.838641 1.22296,1.692034 1.80304,2.560183 0.58001,0.868149 1.13842,1.750006 1.67523,2.645573 0.5368,0.895567 1.05127,1.803764 1.54352,2.72459 0.49218,0.920822 0.96148,1.853169 1.40796,2.797035 0.44641,0.943867 0.86938,1.898117 1.26892,2.862755 0.39953,0.964634 0.7752,1.938492 1.12701,2.92157 0.35175,0.983078 0.6792,1.974193 0.98236,2.97335 0.30304,0.999154 0.58142,2.005143 0.83508,3.017964 0.25373,1.012821 0.48243,2.031261 0.6861,3.055313 0.20368,1.024052 0.38214,2.052483 0.53534,3.085293 0.15326,1.032818 0.28107,2.068767 0.38342,3.107856 0.10236,1.039082 0.17908,2.080052 0.23029,3.12291 0.0513,1.042854 0.0769,2.086338 0.0769,3.130451 V 255.19479 c 0,1.0441 -0.0256,2.08759 -0.0768,3.13047 -0.0512,1.04287 -0.12799,2.08383 -0.23029,3.12289 -0.10241,1.03909 -0.23022,2.07504 -0.38342,3.10785 -0.1532,1.03281 -0.33166,2.06122 -0.53534,3.0853 -0.20367,1.02404 -0.43237,2.04248 -0.68609,3.05529 -0.25373,1.01282 -0.53217,2.0188 -0.83521,3.01798 -0.30316,0.99914 -0.63061,1.99026 -0.98236,2.97333 -0.35175,0.98306 -0.72742,1.95694 -1.12695,2.92157 -0.39954,0.96463 -0.82251,1.91885 -1.26892,2.8627 -0.44642,0.94388 -0.91571,1.87622 -1.4079,2.79706 -0.49225,0.92083 -1.00678,1.82904 -1.54358,2.72457 -0.53681,0.8956 -1.09522,1.77747 -1.67523,2.6456 -0.58008,0.86814 -1.18109,1.72153 -1.80304,2.56018 -0.62195,0.83866 -1.2641,1.66153 -1.92652,2.46866 -0.66241,0.80713 -1.34417,1.59751 -2.04535,2.37113 -0.70117,0.77365 -1.42089,1.5296 -2.15918,2.26791 -0.73828,0.73831 -1.49426,1.45804 -2.26788,2.15924 -0.77362,0.7012 -1.56402,1.38297 -2.37115,2.04535 -0.80713,0.66235 -1.63001,1.30451 -2.46869,1.92648 -0.83869,0.62198 -1.69208,1.22303 -2.56018,1.80311 -0.86817,0.58007 -1.75,1.13851 -2.64557,1.67529 -0.89557,0.53677 -1.80371,1.05127 -2.72455,1.54349 -0.92084,0.49218 -1.85315,0.96148 -2.79706,1.40786 -0.94391,0.44641 -1.89813,0.86942 -2.86279,1.26898 -0.96466,0.39957 -1.93848,0.77521 -2.92151,1.12699 -0.98309,0.35174 -1.97424,0.67917 -2.97339,0.98227 -0.99921,0.3031 -2.00519,0.58148 -3.01807,0.83517 -1.01281,0.2537 -2.03125,0.48239 -3.05523,0.68607 -1.02405,0.2037 -2.05243,0.38214 -3.08521,0.53534 -1.03277,0.15323 -2.06872,0.281 -3.10779,0.38336 -1.03912,0.10232 -2.08007,0.17914 -3.12298,0.23038 -1.04285,0.0512 -2.0863,0.0768 -3.13043,0.0768 H 63.798742 c -1.044113,0 -2.087597,-0.0256 -3.130455,-0.0768 -1.042858,-0.0512 -2.083828,-0.12806 -3.122909,-0.23038 -1.03909,-0.10236 -2.075039,-0.23013 -3.107853,-0.38336 -1.03281,-0.1532 -2.061241,-0.33164 -3.085293,-0.53534 -1.024052,-0.20368 -2.042492,-0.43237 -3.055313,-0.68607 -1.012821,-0.25369 -2.01881,-0.53207 -3.017964,-0.83517 -0.999157,-0.3031 -1.990272,-0.63053 -2.973346,-0.98227 -0.983082,-0.35178 -1.95694,-0.72742 -2.921574,-1.12699 -0.964638,-0.39956 -1.918888,-0.82257 -2.862755,-1.26898 -0.943866,-0.44638 -1.876213,-0.91568 -2.797035,-1.40786 -0.920826,-0.49222 -1.829023,-1.00672 -2.72459,-1.54349 -0.895567,-0.53678 -1.777424,-1.09522 -2.645573,-1.67529 -0.868149,-0.58008 -1.721542,-1.18113 -2.560183,-1.80311 -0.83864,-0.62197 -1.661516,-1.26413 -2.468626,-1.92648 -0.807109,-0.66238 -1.597484,-1.34415 -2.371124,-2.04535 -0.773636,-0.7012 -1.529604,-1.42093 -2.267902,-2.15924 -0.738301,-0.73831 -1.458042,-1.49426 -2.159226,-2.26791 -0.701183,-0.77362 -1.382964,-1.564 -2.045343,-2.37113 -0.662379,-0.80713 -1.304558,-1.63 -1.926536,-2.46866 -0.621977,-0.83865 -1.223005,-1.69204 -1.803083,-2.56018 -0.580079,-0.86813 -1.1385089,-1.75 -1.6752902,-2.6456 C 8.5399475,287.09827 8.0254612,286.19006 7.5332699,285.26923 7.0410781,284.34839 6.571774,283.41605 6.1253581,282.47217 5.6789422,281.52832 5.2559519,280.5741 4.8563867,279.60947 4.4568219,278.64484 4.0811639,277.67096 3.7294123,276.6879 3.3776612,275.70483 3.0502405,274.71371 2.7471504,273.71457 2.4440603,272.71539 2.1656659,271.70941 1.9119669,270.69659 1.6582681,269.68378 1.4295704,268.66534 1.2258741,267.6413 1.0221776,266.61722 0.84372777,265.58881 0.69052452,264.556 0.53732127,263.52319 0.40954918,262.48724 0.30720818,261.44818 0.20486715,260.40909 0.12808055,259.36813 0.07684833,258.32526 0.02561611,257.28238 0,256.23889 0,255.19479 V 63.798702 c 0,-1.044113 0.02561611,-2.087597 0.07684833,-3.130455 0.05123222,-1.042858 0.12801882,-2.083828 0.23035985,-3.122909 0.102341,-1.03909 0.23011309,-2.075039 0.38331634,-3.107853 0.15320325,-1.03281 0.33165308,-2.061241 0.53534958,-3.085293 0.2036963,-1.024052 0.432394,-2.042492 0.6860928,-3.055313 0.253699,-1.012821 0.5320934,-2.01881 0.8351835,-3.017964 0.3030901,-0.999157 0.6305106,-1.990272 0.9822617,-2.973346 0.3517518,-0.983082 0.7274098,-1.95694 1.1269746,-2.921574 0.3995652,-0.964638 0.8225555,-1.918888 1.2689714,-2.862755 0.4464159,-0.943866 0.91572,-1.876213 1.4079118,-2.797035 0.4921913,-0.920826 1.0066776,-1.829023 1.5434599,-2.72459 0.5367803,-0.895567 1.0952102,-1.777424 1.6752892,-2.645573 0.580078,-0.868149 1.181106,-1.721542 1.803084,-2.560183 0.621978,-0.83864 1.264156,-1.661516 1.926535,-2.468626 0.662379,-0.807109 1.34416,-1.597484 2.045343,-2.371124 0.701184,-0.773636 1.420925,-1.529604 2.159226,-2.267902 0.738298,-0.738301 1.494266,-1.458042 2.267904,-2.159226 0.773638,-0.701183 1.564013,-1.382964 2.371124,-2.045343 0.80711,-0.662379 1.629984,-1.304558 2.468624,-1.926536 0.838641,-0.621977 1.692034,-1.223005 2.560183,-1.803083 0.868149,-0.580079 1.750006,-1.1385089 2.645573,-1.6752902 0.895567,-0.5367813 1.803764,-1.0512676 2.72459,-1.5434589 C 34.645027,7.0410781 35.577374,6.571774 36.52124,6.1253581 37.465107,5.6789422 38.419357,5.2559519 39.383995,4.8563867 40.348629,4.4568219 41.322487,4.0811639 42.305565,3.7294123 43.288643,3.3776612 44.279758,3.0502405 45.278915,2.7471504 46.278069,2.4440603 47.284058,2.1656659 48.296879,1.9119669 49.3097,1.6582681 50.32814,1.4295704 51.352192,1.2258741 52.376244,1.0221776 53.404675,0.84372777 54.437485,0.69052452 55.470303,0.53732127 56.506252,0.40954918 57.545341,0.30720818 58.584423,0.20486715 59.625393,0.12808055 60.668251,0.07684833 61.711105,0.02561611 62.754589,0 63.798702,0 Z" /><path
                   id="path110"
                   style="fill:none;stroke:#1a1a1a;stroke-width:1;stroke-linecap:butt;stroke-linejoin:miter;stroke-miterlimit:10;stroke-dasharray:none;stroke-opacity:1"
                   d="M 63.798702,0 H 773.62836 c 1.04413,0 2.08758,0.02561611 3.13043,0.07684833 1.04291,0.05123222 2.08386,0.12801882 3.12292,0.23035985 1.03913,0.102341 2.07502,0.23011309 3.10779,0.38331634 1.03278,0.15320325 2.06122,0.33165308 3.08527,0.53534958 1.02398,0.2036963 2.04242,0.432394 3.05523,0.6860928 1.01288,0.253699 2.01886,0.5320934 3.01807,0.8351835 0.99915,0.3030901 1.9903,0.6305106 2.97339,0.9822617 0.98303,0.3517518 1.95685,0.7274098 2.92151,1.1269746 0.96466,0.3995652 1.91888,0.8225555 2.86273,1.2689714 0.94391,0.4464159 1.87622,0.91572 2.79706,1.4079118 0.92084,0.4921913 1.82898,1.0066776 2.72449,1.5434599 0.89556,0.5367803 1.7774,1.0952102 2.64556,1.6752892 0.86811,0.580078 1.7215,1.181106 2.56012,1.803084 0.83869,0.621978 1.66163,1.264156 2.46875,1.926535 0.80713,0.662379 1.59748,1.34416 2.3711,2.045343 0.77368,0.701184 1.52966,1.420925 2.268,2.159226 0.73835,0.738298 1.45807,1.494266 2.15924,2.267904 0.70118,0.773638 1.38294,1.564013 2.04535,2.371124 0.66242,0.80711 1.30457,1.629984 1.92652,2.468624 0.62195,0.838641 1.22296,1.692034 1.80304,2.560183 0.58001,0.868149 1.13842,1.750006 1.67523,2.645573 0.5368,0.895567 1.05127,1.803764 1.54352,2.72459 0.49218,0.920822 0.96148,1.853169 1.40796,2.797035 0.44641,0.943867 0.86938,1.898117 1.26892,2.862755 0.39953,0.964634 0.7752,1.938492 1.12701,2.92157 0.35175,0.983078 0.6792,1.974193 0.98236,2.97335 0.30304,0.999154 0.58142,2.005143 0.83508,3.017964 0.25373,1.012821 0.48243,2.031261 0.6861,3.055313 0.20368,1.024052 0.38214,2.052483 0.53534,3.085293 0.15326,1.032818 0.28107,2.068767 0.38342,3.107856 0.10236,1.039082 0.17908,2.080052 0.23029,3.12291 0.0513,1.042854 0.0769,2.086338 0.0769,3.130451 V 255.19479 c 0,1.0441 -0.0256,2.08759 -0.0768,3.13047 -0.0512,1.04287 -0.12799,2.08383 -0.23029,3.12289 -0.10241,1.03909 -0.23022,2.07504 -0.38342,3.10785 -0.1532,1.03281 -0.33166,2.06122 -0.53534,3.0853 -0.20367,1.02404 -0.43237,2.04248 -0.68609,3.05529 -0.25373,1.01282 -0.53217,2.0188 -0.83521,3.01798 -0.30316,0.99914 -0.63061,1.99026 -0.98236,2.97333 -0.35175,0.98306 -0.72742,1.95694 -1.12695,2.92157 -0.39954,0.96463 -0.82251,1.91885 -1.26892,2.8627 -0.44642,0.94388 -0.91571,1.87622 -1.4079,2.79706 -0.49225,0.92083 -1.00678,1.82904 -1.54358,2.72457 -0.53681,0.8956 -1.09522,1.77747 -1.67523,2.6456 -0.58008,0.86814 -1.18109,1.72153 -1.80304,2.56018 -0.62195,0.83866 -1.2641,1.66153 -1.92652,2.46866 -0.66241,0.80713 -1.34417,1.59751 -2.04535,2.37113 -0.70117,0.77365 -1.42089,1.5296 -2.15918,2.26791 -0.73828,0.73831 -1.49426,1.45804 -2.26788,2.15924 -0.77362,0.7012 -1.56402,1.38297 -2.37115,2.04535 -0.80713,0.66235 -1.63001,1.30451 -2.46869,1.92648 -0.83869,0.62198 -1.69208,1.22303 -2.56018,1.80311 -0.86817,0.58007 -1.75,1.13851 -2.64557,1.67529 -0.89557,0.53677 -1.80371,1.05127 -2.72455,1.54349 -0.92084,0.49218 -1.85315,0.96148 -2.79706,1.40786 -0.94391,0.44641 -1.89813,0.86942 -2.86279,1.26898 -0.96466,0.39957 -1.93848,0.77521 -2.92151,1.12699 -0.98309,0.35174 -1.97424,0.67917 -2.97339,0.98227 -0.99921,0.3031 -2.00519,0.58148 -3.01807,0.83517 -1.01281,0.2537 -2.03125,0.48239 -3.05523,0.68607 -1.02405,0.2037 -2.05243,0.38214 -3.08521,0.53534 -1.03277,0.15323 -2.06872,0.281 -3.10779,0.38336 -1.03912,0.10232 -2.08007,0.17914 -3.12298,0.23038 -1.04285,0.0512 -2.0863,0.0768 -3.13043,0.0768 H 63.798742 c -1.044113,0 -2.087597,-0.0256 -3.130455,-0.0768 -1.042858,-0.0512 -2.083828,-0.12806 -3.122909,-0.23038 -1.03909,-0.10236 -2.075039,-0.23013 -3.107853,-0.38336 -1.03281,-0.1532 -2.061241,-0.33164 -3.085293,-0.53534 -1.024052,-0.20368 -2.042492,-0.43237 -3.055313,-0.68607 -1.012821,-0.25369 -2.01881,-0.53207 -3.017964,-0.83517 -0.999157,-0.3031 -1.990272,-0.63053 -2.973346,-0.98227 -0.983082,-0.35178 -1.95694,-0.72742 -2.921574,-1.12699 -0.964638,-0.39956 -1.918888,-0.82257 -2.862755,-1.26898 -0.943866,-0.44638 -1.876213,-0.91568 -2.797035,-1.40786 -0.920826,-0.49222 -1.829023,-1.00672 -2.72459,-1.54349 -0.895567,-0.53678 -1.777424,-1.09522 -2.645573,-1.67529 -0.868149,-0.58008 -1.721542,-1.18113 -2.560183,-1.80311 -0.83864,-0.62197 -1.661516,-1.26413 -2.468626,-1.92648 -0.807109,-0.66238 -1.597484,-1.34415 -2.371124,-2.04535 -0.773636,-0.7012 -1.529604,-1.42093 -2.267902,-2.15924 -0.738301,-0.73831 -1.458042,-1.49426 -2.159226,-2.26791 -0.701183,-0.77362 -1.382964,-1.564 -2.045343,-2.37113 -0.662379,-0.80713 -1.304558,-1.63 -1.926536,-2.46866 -0.621977,-0.83865 -1.223005,-1.69204 -1.803083,-2.56018 -0.580079,-0.86813 -1.1385089,-1.75 -1.6752902,-2.6456 C 8.5399475,287.09827 8.0254612,286.19006 7.5332699,285.26923 7.0410781,284.34839 6.571774,283.41605 6.1253581,282.47217 5.6789422,281.52832 5.2559519,280.5741 4.8563867,279.60947 4.4568219,278.64484 4.0811639,277.67096 3.7294123,276.6879 3.3776612,275.70483 3.0502405,274.71371 2.7471504,273.71457 2.4440603,272.71539 2.1656659,271.70941 1.9119669,270.69659 1.6582681,269.68378 1.4295704,268.66534 1.2258741,267.6413 1.0221776,266.61722 0.84372777,265.58881 0.69052452,264.556 0.53732127,263.52319 0.40954918,262.48724 0.30720818,261.44818 0.20486715,260.40909 0.12808055,259.36813 0.07684833,258.32526 0.02561611,257.28238 0,256.23889 0,255.19479 V 63.798702 c 0,-1.044113 0.02561611,-2.087597 0.07684833,-3.130455 0.05123222,-1.042858 0.12801882,-2.083828 0.23035985,-3.122909 0.102341,-1.03909 0.23011309,-2.075039 0.38331634,-3.107853 0.15320325,-1.03281 0.33165308,-2.061241 0.53534958,-3.085293 0.2036963,-1.024052 0.432394,-2.042492 0.6860928,-3.055313 0.253699,-1.012821 0.5320934,-2.01881 0.8351835,-3.017964 0.3030901,-0.999157 0.6305106,-1.990272 0.9822617,-2.973346 0.3517518,-0.983082 0.7274098,-1.95694 1.1269746,-2.921574 0.3995652,-0.964638 0.8225555,-1.918888 1.2689714,-2.862755 0.4464159,-0.943866 0.91572,-1.876213 1.4079118,-2.797035 0.4921913,-0.920826 1.0066776,-1.829023 1.5434599,-2.72459 0.5367803,-0.895567 1.0952102,-1.777424 1.6752892,-2.645573 0.580078,-0.868149 1.181106,-1.721542 1.803084,-2.560183 0.621978,-0.83864 1.264156,-1.661516 1.926535,-2.468626 0.662379,-0.807109 1.34416,-1.597484 2.045343,-2.371124 0.701184,-0.773636 1.420925,-1.529604 2.159226,-2.267902 0.738298,-0.738301 1.494266,-1.458042 2.267904,-2.159226 0.773638,-0.701183 1.564013,-1.382964 2.371124,-2.045343 0.80711,-0.662379 1.629984,-1.304558 2.468624,-1.926536 0.838641,-0.621977 1.692034,-1.223005 2.560183,-1.803083 0.868149,-0.580079 1.750006,-1.1385089 2.645573,-1.6752902 0.895567,-0.5367813 1.803764,-1.0512676 2.72459,-1.5434589 C 34.645027,7.0410781 35.577374,6.571774 36.52124,6.1253581 37.465107,5.6789422 38.419357,5.2559519 39.383995,4.8563867 40.348629,4.4568219 41.322487,4.0811639 42.305565,3.7294123 43.288643,3.3776612 44.279758,3.0502405 45.278915,2.7471504 46.278069,2.4440603 47.284058,2.1656659 48.296879,1.9119669 49.3097,1.6582681 50.32814,1.4295704 51.352192,1.2258741 52.376244,1.0221776 53.404675,0.84372777 54.437485,0.69052452 55.470303,0.53732127 56.506252,0.40954918 57.545341,0.30720818 58.584423,0.20486715 59.625393,0.12808055 60.668251,0.07684833 61.711105,0.02561611 62.754589,0 63.798702,0 Z" /></g></g></g></g></g></g><g
       id="g112"><g
         clip-path="url(#clipPath118)"
         id="g114"><g
           clip-path="url(#clipPath124)"
           id="g120"><g
             clip-path="url(#clipPath130)"
             id="g126"><g
               clip-path="url(#clipPath136)"
               id="g132"><g
                 transform="matrix(4.1454096,0,0,4.1435266,371.15201,1285.2327)"
                 id="g138"><path
                   id="path140"
                   style="fill:#ffffff;fill-opacity:1;fill-rule:evenodd;stroke:none"
                   d="M 29.555109,0 H 743.42334 c 0.96802,0 1.93365,0.04743864 2.89697,0.14231591 0.96326,0.0948773 1.91956,0.23673631 2.86884,0.42557712 0.9494,0.18884086 1.88727,0.42375415 2.81354,0.70473997 0.92627,0.2809857 1.83654,0.6066907 2.73077,0.9771152 0.89429,0.3704248 1.76831,0.7837851 2.62201,1.2400811 0.85358,0.4562962 1.6828,0.9533308 2.48767,1.4911039 0.80487,0.5377736 1.58148,1.1136956 2.32971,1.727767 0.74823,0.6140713 1.4646,1.2633347 2.14905,1.9477901 0.68445,0.6844559 1.33374,1.4008077 1.94788,2.1490557 0.61401,0.748248 1.18988,1.524789 1.72766,2.329622 0.53778,0.804835 1.03485,1.634088 1.49115,2.487758 0.45623,0.853671 0.86956,1.727647 1.23999,2.62193 0.37042,0.894285 0.69616,1.804571 0.97723,2.730858 0.28101,0.926286 0.51593,1.864111 0.70471,2.813476 0.18885,0.949368 0.33075,1.905705 0.42566,2.869009 0.0948,0.963307 0.14227,1.928944 0.14227,2.89691 v 88.665331 c 0,0.96796 -0.0474,1.9336 -0.14233,2.8969 -0.0949,0.9633 -0.23675,1.91963 -0.4256,2.869 -0.18878,0.94937 -0.4237,1.88719 -0.70471,2.81348 -0.28107,0.92629 -0.60681,1.83658 -0.97723,2.73085 -0.37043,0.89429 -0.78376,1.76826 -1.23999,2.62193 -0.4563,0.85369 -0.95337,1.68294 -1.49115,2.48777 -0.53778,0.80484 -1.11365,1.58139 -1.72766,2.32965 -0.61414,0.74824 -1.26343,1.46458 -1.94788,2.14903 -0.68445,0.68446 -1.40082,1.33374 -2.14905,1.9478 -0.74823,0.61406 -1.52484,1.18997 -2.32971,1.72774 -0.80481,0.53778 -1.63403,1.03482 -2.48767,1.49112 -0.8537,0.45628 -1.72766,0.86964 -2.62195,1.24006 -0.89423,0.37044 -1.80444,0.69614 -2.73077,0.97713 -0.92633,0.28099 -1.8642,0.5159 -2.8136,0.70474 -0.94928,0.18886 -1.90558,0.33072 -2.8689,0.42558 -0.96326,0.0949 -1.92889,0.14232 -2.89691,0.14232 H 29.555109 c -0.967966,0 -1.933603,-0.0474 -2.896908,-0.14232 -0.963306,-0.0949 -1.919643,-0.23672 -2.869011,-0.42558 -0.949365,-0.18884 -1.88719,-0.42375 -2.813476,-0.70474 -0.926287,-0.28099 -1.836573,-0.60669 -2.730858,-0.97713 -0.894283,-0.37042 -1.768259,-0.78378 -2.621929,-1.24006 -0.85367,-0.45629 -1.682923,-0.95333 -2.487758,-1.49111 -0.804834,-0.53776 -1.581375,-1.11369 -2.329623,-1.72775 -0.748248,-0.61406 -1.4645998,-1.26334 -2.1490557,-1.9478 C 7.9720349,138.4346 7.3227715,137.71825 6.7087002,136.97 6.0946288,136.22176 5.5187068,135.44521 4.9809332,134.64037 4.4431601,133.83554 3.9461255,133.00629 3.4898293,132.15263 3.0335333,131.29895 2.620173,130.42496 2.2497482,129.53067 1.8793237,128.6364 1.5536187,127.72611 1.272633,126.79982 0.99164718,125.87353 0.75673389,124.93571 0.56789303,123.98634 0.37905222,123.03697 0.23719318,122.08064 0.14231591,121.11734 0.04743864,120.15404 0,119.1884 0,118.22044 V 29.555109 C 0,28.587143 0.04743864,27.621506 0.14231591,26.658201 0.23719318,25.694895 0.37905222,24.738558 0.56789303,23.78919 0.75673389,22.839825 0.99164718,21.902 1.272633,20.975714 1.5536187,20.049427 1.8793237,19.139141 2.2497482,18.244856 2.620173,17.350573 3.0335333,16.476597 3.4898293,15.622927 3.9461255,14.769257 4.4431601,13.940004 4.9809332,13.135169 5.5187068,12.330335 6.0946288,11.553794 6.7087002,10.805546 7.3227715,10.057298 7.9720349,9.3409462 8.6564903,8.6564903 9.3409462,7.9720349 10.057298,7.3227715 10.805546,6.7087002 11.553794,6.0946288 12.330335,5.5187068 13.135168,4.9809332 13.940003,4.4431601 14.769256,3.9461255 15.622926,3.4898293 16.476597,3.0335333 17.350573,2.620173 18.244856,2.2497482 19.139141,1.8793237 20.049427,1.5536187 20.975714,1.272633 21.902,0.99164718 22.839825,0.75673389 23.78919,0.56789303 24.738558,0.37905222 25.694895,0.23719318 26.658199,0.14231591 27.621506,0.04743864 28.587143,0 29.555109,0 Z" /><path
                   id="path142"
                   style="fill:none;stroke:#1a1a1a;stroke-width:1;stroke-linecap:butt;stroke-linejoin:miter;stroke-miterlimit:10;stroke-dasharray:none;stroke-opacity:1"
                   d="M 29.555109,0 H 743.42334 c 0.96802,0 1.93365,0.04743864 2.89697,0.14231591 0.96326,0.0948773 1.91956,0.23673631 2.86884,0.42557712 0.9494,0.18884086 1.88727,0.42375415 2.81354,0.70473997 0.92627,0.2809857 1.83654,0.6066907 2.73077,0.9771152 0.89429,0.3704248 1.76831,0.7837851 2.62201,1.2400811 0.85358,0.4562962 1.6828,0.9533308 2.48767,1.4911039 0.80487,0.5377736 1.58148,1.1136956 2.32971,1.727767 0.74823,0.6140713 1.4646,1.2633347 2.14905,1.9477901 0.68445,0.6844559 1.33374,1.4008077 1.94788,2.1490557 0.61401,0.748248 1.18988,1.524789 1.72766,2.329622 0.53778,0.804835 1.03485,1.634088 1.49115,2.487758 0.45623,0.853671 0.86956,1.727647 1.23999,2.62193 0.37042,0.894285 0.69616,1.804571 0.97723,2.730858 0.28101,0.926286 0.51593,1.864111 0.70471,2.813476 0.18885,0.949368 0.33075,1.905705 0.42566,2.869009 0.0948,0.963307 0.14227,1.928944 0.14227,2.89691 v 88.665331 c 0,0.96796 -0.0474,1.9336 -0.14233,2.8969 -0.0949,0.9633 -0.23675,1.91963 -0.4256,2.869 -0.18878,0.94937 -0.4237,1.88719 -0.70471,2.81348 -0.28107,0.92629 -0.60681,1.83658 -0.97723,2.73085 -0.37043,0.89429 -0.78376,1.76826 -1.23999,2.62193 -0.4563,0.85369 -0.95337,1.68294 -1.49115,2.48777 -0.53778,0.80484 -1.11365,1.58139 -1.72766,2.32965 -0.61414,0.74824 -1.26343,1.46458 -1.94788,2.14903 -0.68445,0.68446 -1.40082,1.33374 -2.14905,1.9478 -0.74823,0.61406 -1.52484,1.18997 -2.32971,1.72774 -0.80481,0.53778 -1.63403,1.03482 -2.48767,1.49112 -0.8537,0.45628 -1.72766,0.86964 -2.62195,1.24006 -0.89423,0.37044 -1.80444,0.69614 -2.73077,0.97713 -0.92633,0.28099 -1.8642,0.5159 -2.8136,0.70474 -0.94928,0.18886 -1.90558,0.33072 -2.8689,0.42558 -0.96326,0.0949 -1.92889,0.14232 -2.89691,0.14232 H 29.555109 c -0.967966,0 -1.933603,-0.0474 -2.896908,-0.14232 -0.963306,-0.0949 -1.919643,-0.23672 -2.869011,-0.42558 -0.949365,-0.18884 -1.88719,-0.42375 -2.813476,-0.70474 -0.926287,-0.28099 -1.836573,-0.60669 -2.730858,-0.97713 -0.894283,-0.37042 -1.768259,-0.78378 -2.621929,-1.24006 -0.85367,-0.45629 -1.682923,-0.95333 -2.487758,-1.49111 -0.804834,-0.53776 -1.581375,-1.11369 -2.329623,-1.72775 -0.748248,-0.61406 -1.4645998,-1.26334 -2.1490557,-1.9478 C 7.9720349,138.4346 7.3227715,137.71825 6.7087002,136.97 6.0946288,136.22176 5.5187068,135.44521 4.9809332,134.64037 4.4431601,133.83554 3.9461255,133.00629 3.4898293,132.15263 3.0335333,131.29895 2.620173,130.42496 2.2497482,129.53067 1.8793237,128.6364 1.5536187,127.72611 1.272633,126.79982 0.99164718,125.87353 0.75673389,124.93571 0.56789303,123.98634 0.37905222,123.03697 0.23719318,122.08064 0.14231591,121.11734 0.04743864,120.15404 0,119.1884 0,118.22044 V 29.555109 C 0,28.587143 0.04743864,27.621506 0.14231591,26.658201 0.23719318,25.694895 0.37905222,24.738558 0.56789303,23.78919 0.75673389,22.839825 0.99164718,21.902 1.272633,20.975714 1.5536187,20.049427 1.8793237,19.139141 2.2497482,18.244856 2.620173,17.350573 3.0335333,16.476597 3.4898293,15.622927 3.9461255,14.769257 4.4431601,13.940004 4.9809332,13.135169 5.5187068,12.330335 6.0946288,11.553794 6.7087002,10.805546 7.3227715,10.057298 7.9720349,9.3409462 8.6564903,8.6564903 9.3409462,7.9720349 10.057298,7.3227715 10.805546,6.7087002 11.553794,6.0946288 12.330335,5.5187068 13.135168,4.9809332 13.940003,4.4431601 14.769256,3.9461255 15.622926,3.4898293 16.476597,3.0335333 17.350573,2.620173 18.244856,2.2497482 19.139141,1.8793237 20.049427,1.5536187 20.975714,1.272633 21.902,0.99164718 22.839825,0.75673389 23.78919,0.56789303 24.738558,0.37905222 25.694895,0.23719318 26.658199,0.14231591 27.621506,0.04743864 28.587143,0 29.555109,0 Z" /></g></g></g></g></g></g><g
       id="g144"><g
         clip-path="url(#clipPath150)"
         id="g146"><g
           transform="matrix(7.1065288,0,0,7.103188,447.81924,223.96407)"
           id="g152"><text
             id="text156"
             style="font-style:italic;font-variant:normal;font-weight:bold;font-size:14px;font-family:NotoSans;-inkscape-font-specification:NotoSans-BoldItalic;writing-mode:lr-tb;fill:#1a1a1a;fill-opacity:1;fill-rule:nonzero;stroke:none"
             transform="translate(0,14)"><tspan
               id="tspan154"
               y="0"
               x="0 7.713974 11.703964 15.343948 25.143906 33.333878 46.00383 53.801804 61.991776 70.307739 77.573715 86.029678 94.345642 107.01559 111.17358 117.93556 124.55754 128.19753 132.94351 140.74149 144.73148 153.04744 157.03743 161.02742 164.6674 170.40738 178.86334 186.66132 192.5553 205.22525 213.41522 221.73119 228.99716 237.45312 245.76909 258.43903 262.59702 269.35901 275.98099">1. Homeodynamics (e.g., thermodynamics)</tspan></text>
</g><g
           transform="matrix(7.1064162,0,0,7.103188,447.81924,223.96407)"
           id="g158"><text
             id="text162"
             style="font-variant:normal;font-weight:normal;font-size:14px;font-family:NotoSans;-inkscape-font-specification:NotoSans;writing-mode:lr-tb;fill:#1a1a1a;fill-opacity:1;fill-rule:nonzero;stroke:none"
             transform="translate(0,34)"><tspan
               id="tspan160"
               y="0"
               x="0 10.930664 16.713867 21.765625 30.419922 38.889648 47.50293 53.149414 61.003906 69.617188 77.512695 81.149414 86.098633 91.150391 99.483398 110.48926 118.34375 123.99023 132.60352 139.30957 142.94629 151.41602 157.0625 165.67578 173.57129 179.35449 184.30371 187.94043 195.65137 199.28809 202.89746 211.55176 218.27148 223.91797 231.81348 239.66797 246.37402 254.26953 257.90625 261.51562 270.16992 273.80664 281.70215 290.35645 295.4082 301.05469 309.52441 318.00098 325.1377 328.6377 332.27441 340.8877 344.49707 351.20312 357.90918 361.51855 370.13184 377.98633 383.03809 386.64746 395.11719 403.77148 407.4082 415.87793 420.69727">Orthograde (towards order) = increase in entropy, dissipation of </tspan></text>
<text
             id="text166"
             style="font-variant:normal;font-weight:normal;font-size:14px;font-family:NotoSans;-inkscape-font-specification:NotoSans;writing-mode:lr-tb;fill:#1a1a1a;fill-opacity:1;fill-rule:nonzero;stroke:none"
             transform="translate(0,54)"><tspan
               id="tspan164"
               y="0"
               x="0 6.7197266 15.189453 23.84375 30.549805 35.601562 41.248047 49.102539 52.711914 61.366211 66.417969 73.124023 76.624023 80.260742 88.15625 96.769531 105.42383 109.0332 112.64258 116.25195 124.86523 130.51172 138.36621 143.41797 147.02734 155.49707">constraints, equilibration</tspan></text>
</g><g
           transform="matrix(7.1083784,0,0,7.103188,447.81924,223.96407)"
           id="g168"><text
             id="text172"
             style="font-style:italic;font-variant:normal;font-weight:bold;font-size:14px;font-family:NotoSans;-inkscape-font-specification:NotoSans-BoldItalic;writing-mode:lr-tb;fill:#1a1a1a;fill-opacity:1;fill-rule:nonzero;stroke:none"
             transform="translate(0,94)"><tspan
               id="tspan170"
               y="0"
               x="0 7.713974 11.703964 15.343948 27.663895 35.853867 41.747849 50.07782 58.533783 66.723755 75.039719 82.305695 90.761658 99.077621 111.74757 115.90556 122.66754 129.28952 132.9295 137.67549 145.47346 149.46346 157.77942 161.76941 165.7594 169.39938 176.02136 183.81934 187.97733 193.19931 197.70729 197.70729 205.89726 211.65125 219.96721 228.28317 236.73914 240.89713 247.26711 255.58307 261.32306 265.48105 273.67102 282.12698">2. Morphodynamics (e.g., self- organization)</tspan></text>
</g><g
           transform="matrix(7.1064162,0,0,7.103188,447.81924,223.96407)"
           id="g174"><text
             id="text178"
             style="font-variant:normal;font-weight:normal;font-size:14px;font-family:NotoSans;-inkscape-font-specification:NotoSans;writing-mode:lr-tb;fill:#1a1a1a;fill-opacity:1;fill-rule:nonzero;stroke:none"
             transform="translate(0,114)"><tspan
               id="tspan176"
               y="0"
               x="0 10.930664 16.713867 21.765625 30.419922 38.889648 47.50293 53.149414 61.003906 69.617188 77.512695 81.149414 88.860352 92.49707 100.35156 113.44238 122.05566 125.66504 129.27441 134.09375 137.70312 144.42285 152.27734 157.3291 160.93848 169.4082 178.0625 181.69922 190.16895 194.98828 198.625 205.34473 213.81445 222.46875 229.1748 234.22656 239.87305 247.72754 251.33691 259.99121 265.04297 271.74902 275.24902 278.88574 287.49902 294.63574 303.29004 311.14453 324.23535 327.84473 334.56445 342.41895 346.02832">Orthograde = amplification of constraints, dynamical </tspan></text>
<text
             id="text182"
             style="font-variant:normal;font-weight:normal;font-size:14px;font-family:NotoSans;-inkscape-font-specification:NotoSans;writing-mode:lr-tb;fill:#1a1a1a;fill-opacity:1;fill-rule:nonzero;stroke:none"
             transform="translate(0,134)"><tspan
               id="tspan180"
               y="0"
               x="0 5.6464844 13.541992 22.155273 30.80957 34.418945 42.273438 48.056641 51.666016 58.249023 66.103516 71.155273 74.764648 83.234375 91.888672 95.388672 99.025391 112.11621 120.01172 125.06348 132.91797 139.62402 144.67578 152.53027 161.14355 164.75293 168.3623 171.97168 177.02344">regularization, metastability</tspan></text>
</g><g
           transform="matrix(7.1210279,0,0,7.103188,447.81924,223.96407)"
           id="g184"><text
             id="text188"
             style="font-style:italic;font-variant:normal;font-weight:bold;font-size:14px;font-family:NotoSans;-inkscape-font-specification:NotoSans-BoldItalic;writing-mode:lr-tb;fill:#1a1a1a;fill-opacity:1;fill-rule:nonzero;stroke:none"
             transform="translate(0,174)"><tspan
               id="tspan186"
               y="0"
               x="0 7.713974 11.703964 15.343948 21.797928 29.595901 33.753891 41.551865 49.741837 58.0578 65.323776 73.779739 82.095703 94.765656 98.923645 105.68562 112.3076 115.94759 120.69357 128.49155 132.48154 140.7975 144.78749 148.77748 152.41747 156.57545 160.73344 165.95543 173.7534 177.74339 181.38338 188.00536 195.80333 208.47328 212.63127 220.82124 227.44322 231.60121 238.22319">3. Teleodynamics (e.g., life, semiosis)</tspan></text>
</g><g
           transform="matrix(7.1064162,0,0,7.103188,447.81924,223.96407)"
           id="g190"><text
             id="text194"
             style="font-variant:normal;font-weight:normal;font-size:14px;font-family:NotoSans;-inkscape-font-specification:NotoSans;writing-mode:lr-tb;fill:#1a1a1a;fill-opacity:1;fill-rule:nonzero;stroke:none"
             transform="translate(0,194)"><tspan
               id="tspan192"
               y="0"
               x="0 10.930664 16.713867 21.765625 30.419922 38.889648 47.50293 53.149414 61.003906 69.617188 77.512695 81.149414 88.860352 92.49707 98.143555 106.03906 112.75879 121.41309 127.19629 133.90234 137.51172 144.62109 152.5166 156.15332 162.85938 170.75488 174.36426 179.18359 183.94141 183.94141 189.58789 197.4834 204.20312 212.67285 221.32715 228.0332 233.08496 236.69434 241.74609 250.40039 255.45215 259.06152 267.53125 276.18555 279.82227 287.67676 296.33105 304.94434 308.58105 314.22754 322.12305 330.73633 336.38281 344.85254 353.46582 362.12012 368.83984 373.8916 377.50098 385.9707 394.625 398.26172 406.73145 411.55078">Orthograde = recursive self- reconstitution and reproduction of </tspan></text>
<text
             id="text198"
             style="font-variant:normal;font-weight:normal;font-size:14px;font-family:NotoSans;-inkscape-font-specification:NotoSans;writing-mode:lr-tb;fill:#1a1a1a;fill-opacity:1;fill-rule:nonzero;stroke:none"
             transform="translate(0,214)"><tspan
               id="tspan196"
               y="0"
               x="0 6.7060547 13.842773 20.548828 25.600586 33.496094 46.586914 53.292969 56.929688 65.399414 70.21875 73.855469 80.575195 89.044922 97.699219 104.40527 109.45703 115.10352 122.95801 126.56738 135.22168 140.27344">systems of constraints</tspan></text>
</g></g></g></g></svg>