<?xml version="1.0" encoding="utf-8"?>
<svg x="0px" y="280px" width="1400px" height="800px" viewBox="0 280 1400 800" xmlns="http://www.w3.org/2000/svg" xmlns:xlink="http://www.w3.org/1999/xlink">
  <!--Generated by AMDN-->
  <g id="Layer 1">
    <radialGradient cx="703.534" cy="637.597" r="353.466" fx="703.534" fy="637.597" gradientUnits="userSpaceOnUse" gradientTransform="matrix(0.992546,0.121869,-0.121869,0.992546,82.9476,-80.9866)" id="am2">
      <stop style="stop-color:#000000;stop-opacity:1;"/>
      <stop offset="1" style="stop-color:#9f9f9f;stop-opacity:0.320489;"/>
    </radialGradient>
    <g id="Path">
      <path style="fill:url(#am2);fill-opacity:1;fill-rule:evenodd;opacity:1;stroke:none;" d="M703.534,284.131 C898.747,284.131,1057,442.383,1057,637.597 C1057,832.811,898.747,991.063,703.534,991.063 C508.32,991.063,350.068,832.811,350.068,637.597 C350.068,442.383,508.32,284.131,703.534,284.131 z"/>
    </g>
    <path id="Path Copy" style="fill:#aaaaaa;fill-opacity:0.563382;fill-rule:evenodd;opacity:1;stroke:none;" d="M1206.2,449.285 C1313.14,449.285,1399.83,535.978,1399.83,642.919 C1399.83,749.861,1313.14,836.554,1206.2,836.554 C1099.25,836.554,1012.56,749.861,1012.56,642.919 C1012.56,535.978,1099.25,449.285,1206.2,449.285 z"/>
    <path id="Path Copy 1" style="fill:#aaaaaa;fill-opacity:0.563382;fill-rule:evenodd;opacity:1;stroke:none;" d="M195.289,333.171 C302.231,333.171,388.924,419.864,388.924,526.805 C388.924,633.747,302.231,720.44,195.289,720.44 C88.3475,720.44,1.65429,633.747,1.65429,526.805 C1.65429,419.864,88.3475,333.171,195.289,333.171 z"/>
    <path id="Path Copy 2" style="fill:#aaaaaa;fill-opacity:0.563382;fill-rule:evenodd;opacity:1;stroke:none;" d="M231.602,690.179 C338.543,690.179,425.236,776.872,425.236,883.814 C425.236,990.755,338.543,1077.45,231.602,1077.45 C124.66,1077.45,37.9668,990.755,37.9668,883.814 C37.9668,776.872,124.66,690.179,231.602,690.179 z"/>
    <path id="Path" style="fill:#ffffff;fill-opacity:1;fill-rule:evenodd;opacity:1;stroke:none;" d="M704.409,432.431 C818.207,432.431,910.459,524.683,910.459,638.482 C910.459,752.281,818.207,844.533,704.409,844.533 C590.61,844.533,498.358,752.281,498.358,638.482 C498.358,524.683,590.61,432.431,704.409,432.431 z"/>
    <text id="Text" style="fill:#000000;font-family:Noto Sans;font-size:64;" transform="matrix(1,0,0,1,-255.592,598.919)">
      <tspan x="856.416" y="68">Theme</tspan>
    </text>
    <path id="Path" style="fill:none;opacity:1;stroke:#000000;stroke-dasharray:23, 9, 0, 0, 0, 0;stroke-dashoffset:0;stroke-linecap:round;stroke-linejoin:round;stroke-miterlimit:10;stroke-opacity:0.683115;stroke-width:7;" d="M910.459,503.316 C910.459,503.316,1052.23,361.546,1052.23,361.546"/>
    <text id="Text" style="fill:#000000;font-family:Noto Sans;font-size:44;" transform="matrix(1,0,0,1,1047.23,326.046)">
      <tspan x="19.0455" y="47">Thematic Field</tspan>
    </text>
    <text id="Text" style="fill:#505050;font-family:Noto Sans;font-size:44;" transform="matrix(1,0,0,1,1086.46,582.739)">
      <tspan x="36.5508" y="47">Physical </tspan>
      <tspan x="60.5747" y="107">world</tspan>
    </text>
    <text id="Text Copy" style="fill:#505050;font-family:Noto Sans;font-size:44;" transform="matrix(1,0,0,1,75.5563,470.532)">
      <tspan x="63.3247" y="47">Inner </tspan>
      <tspan x="25.4188" y="107">thoughts</tspan>
    </text>
    <text id="Text Copy 1" style="fill:#505050;font-family:Noto Sans;font-size:44;" transform="matrix(1,0,0,1,127.485,823.314)">
      <tspan x="38.2705" y="47">Bodily </tspan>
      <tspan x="65.7925" y="107">self</tspan>
    </text>
  </g>
</svg>
