<?xml version="1.0" encoding="utf-8"?>
<svg x="329.61pt" y="169.192pt" width="1315.2pt" height="652.171pt" viewBox="329.61 169.192 1315.2 652.171" xmlns="http://www.w3.org/2000/svg" xmlns:xlink="http://www.w3.org/1999/xlink">
  <g id="Group">
    <path id="Path" style="fill:#a9a9a9;fill-opacity:0.671321;fill-rule:evenodd;opacity:1;stroke:none;" d="M329.61,233.696 C329.61,233.696,689.026,233.696,689.026,233.696 C689.026,233.696,689.026,313.348,689.026,313.348 C689.026,313.348,329.61,313.348,329.61,313.348 C329.61,313.348,329.61,233.696,329.61,233.696 z"/>
    <g id="Text">
      <g id="Text">
        <path style="fill:#000000;fill-opacity:1;fill-rule:nonzero;opacity:1;stroke:none;" d="M357.395,264.606 C360.181,264.606,362.244,265.501,363.583,267.291 C364.628,268.688,365.151,270.475,365.151,272.652 C365.151,275.008,364.553,276.966,363.357,278.528 C361.954,280.361,359.952,281.278,357.352,281.278 C354.925,281.278,353.016,280.476,351.627,278.871 C350.388,277.325,349.768,275.369,349.768,273.006 C349.768,270.872,350.298,269.046,351.358,267.528 C352.719,265.58,354.731,264.606,357.395,264.606 z M357.61,279.366 C359.494,279.366,360.856,278.691,361.698,277.341 C362.539,275.991,362.96,274.438,362.96,272.684 C362.96,270.829,362.475,269.336,361.504,268.204 C360.534,267.073,359.207,266.507,357.524,266.507 C355.892,266.507,354.559,267.068,353.528,268.188 C352.497,269.309,351.981,270.962,351.981,273.146 C351.981,274.893,352.424,276.367,353.308,277.566 C354.192,278.766,355.627,279.366,357.61,279.366 z M367.493,269.311 C367.493,269.311,369.33,269.311,369.33,269.311 C369.33,269.311,369.33,271.298,369.33,271.298 C369.48,270.911,369.849,270.441,370.436,269.886 C371.024,269.331,371.7,269.053,372.467,269.053 C372.503,269.053,372.563,269.057,372.649,269.064 C372.735,269.071,372.882,269.085,373.09,269.107 C373.09,269.107,373.09,271.148,373.09,271.148 C372.975,271.126,372.87,271.112,372.773,271.105 C372.676,271.098,372.571,271.094,372.456,271.094 C371.482,271.094,370.734,271.407,370.211,272.034 C369.688,272.661,369.427,273.382,369.427,274.199 C369.427,274.199,369.427,280.816,369.427,280.816 C369.427,280.816,367.493,280.816,367.493,280.816 C367.493,280.816,367.493,269.311,367.493,269.311 z M375.99,275.198 C375.99,276.429,376.252,277.461,376.774,278.291 C377.297,279.122,378.135,279.537,379.288,279.537 C380.183,279.537,380.919,279.152,381.496,278.383 C382.072,277.613,382.36,276.508,382.36,275.069 C382.36,273.615,382.063,272.539,381.469,271.841 C380.874,271.142,380.14,270.793,379.267,270.793 C378.293,270.793,377.503,271.166,376.898,271.91 C376.293,272.655,375.99,273.751,375.99,275.198 z M378.901,269.107 C379.782,269.107,380.52,269.293,381.114,269.665 C381.458,269.88,381.848,270.256,382.285,270.793 C382.285,270.793,382.285,264.982,382.285,264.982 C382.285,264.982,384.143,264.982,384.143,264.982 C384.143,264.982,384.143,280.816,384.143,280.816 C384.143,280.816,382.403,280.816,382.403,280.816 C382.403,280.816,382.403,279.215,382.403,279.215 C381.952,279.924,381.419,280.436,380.803,280.751 C380.187,281.066,379.481,281.224,378.686,281.224 C377.405,281.224,376.294,280.685,375.356,279.607 C374.418,278.529,373.949,277.095,373.949,275.305 C373.949,273.629,374.377,272.177,375.233,270.949 C376.089,269.721,377.311,269.107,378.901,269.107 z M387.001,269.365 C387.001,269.365,388.967,269.365,388.967,269.365 C388.967,269.365,388.967,280.816,388.967,280.816 C388.967,280.816,387.001,280.816,387.001,280.816 C387.001,280.816,387.001,269.365,387.001,269.365 z M387.001,265.035 C387.001,265.035,388.967,265.035,388.967,265.035 C388.967,265.035,388.967,267.227,388.967,267.227 C388.967,267.227,387.001,267.227,387.001,267.227 C387.001,267.227,387.001,265.035,387.001,265.035 z M391.889,269.311 C391.889,269.311,393.725,269.311,393.725,269.311 C393.725,269.311,393.725,270.944,393.725,270.944 C394.27,270.27,394.846,269.787,395.455,269.493 C396.064,269.2,396.74,269.053,397.485,269.053 C399.118,269.053,400.221,269.622,400.794,270.761 C401.109,271.384,401.267,272.276,401.267,273.436 C401.267,273.436,401.267,280.816,401.267,280.816 C401.267,280.816,399.301,280.816,399.301,280.816 C399.301,280.816,399.301,273.565,399.301,273.565 C399.301,272.863,399.197,272.297,398.989,271.867 C398.645,271.151,398.022,270.793,397.12,270.793 C396.662,270.793,396.286,270.84,395.992,270.933 C395.462,271.09,394.997,271.406,394.596,271.878 C394.273,272.258,394.064,272.65,393.967,273.055 C393.871,273.459,393.822,274.037,393.822,274.789 C393.822,274.789,393.822,280.816,393.822,280.816 C393.822,280.816,391.889,280.816,391.889,280.816 C391.889,280.816,391.889,269.311,391.889,269.311 z M405.606,277.754 C405.606,278.313,405.81,278.753,406.219,279.076 C406.627,279.398,407.11,279.559,407.669,279.559 C408.349,279.559,409.008,279.401,409.645,279.086 C410.72,278.563,411.257,277.708,411.257,276.519 C411.257,276.519,411.257,274.961,411.257,274.961 C411.02,275.112,410.716,275.237,410.344,275.337 C409.971,275.437,409.606,275.509,409.248,275.552 C409.248,275.552,408.077,275.702,408.077,275.702 C407.375,275.796,406.849,275.942,406.498,276.143 C405.904,276.479,405.606,277.017,405.606,277.754 z M410.29,273.844 C410.734,273.787,411.031,273.601,411.182,273.285 C411.267,273.114,411.31,272.867,411.31,272.544 C411.31,271.885,411.076,271.407,410.607,271.11 C410.138,270.813,409.466,270.664,408.593,270.664 C407.583,270.664,406.867,270.936,406.444,271.481 C406.208,271.782,406.054,272.229,405.982,272.824 C405.982,272.824,404.178,272.824,404.178,272.824 C404.213,271.406,404.674,270.419,405.558,269.864 C406.442,269.309,407.468,269.032,408.636,269.032 C409.989,269.032,411.088,269.289,411.934,269.805 C412.771,270.321,413.19,271.123,413.19,272.211 C413.19,272.211,413.19,278.839,413.19,278.839 C413.19,279.04,413.232,279.201,413.314,279.323 C413.396,279.444,413.57,279.505,413.835,279.505 C413.921,279.505,414.017,279.5,414.125,279.489 C414.232,279.478,414.347,279.462,414.469,279.441 C414.469,279.441,414.469,280.869,414.469,280.869 C414.168,280.955,413.939,281.009,413.781,281.031 C413.624,281.052,413.409,281.063,413.137,281.063 C412.471,281.063,411.987,280.826,411.686,280.354 C411.529,280.103,411.418,279.749,411.353,279.29 C410.96,279.806,410.394,280.254,409.656,280.633 C408.919,281.013,408.106,281.202,407.218,281.202 C406.151,281.202,405.279,280.878,404.602,280.23 C403.925,279.582,403.587,278.771,403.587,277.797 C403.587,276.73,403.92,275.903,404.586,275.316 C405.252,274.728,406.126,274.367,407.207,274.231 C407.207,274.231,410.29,273.844,410.29,273.844 z M416.413,269.311 C416.413,269.311,418.25,269.311,418.25,269.311 C418.25,269.311,418.25,271.298,418.25,271.298 C418.4,270.911,418.769,270.441,419.356,269.886 C419.944,269.331,420.62,269.053,421.387,269.053 C421.422,269.053,421.483,269.057,421.569,269.064 C421.655,269.071,421.802,269.085,422.01,269.107 C422.01,269.107,422.01,271.148,422.01,271.148 C421.895,271.126,421.789,271.112,421.693,271.105 C421.596,271.098,421.49,271.094,421.376,271.094 C420.402,271.094,419.654,271.407,419.131,272.034 C418.608,272.661,418.347,273.382,418.347,274.199 C418.347,274.199,418.347,280.816,418.347,280.816 C418.347,280.816,416.413,280.816,416.413,280.816 C416.413,280.816,416.413,269.311,416.413,269.311 z M430.872,269.311 C430.872,269.311,433.01,269.311,433.01,269.311 C432.738,270.048,432.132,271.731,431.194,274.36 C430.492,276.336,429.905,277.948,429.433,279.194 C428.315,282.13,427.528,283.92,427.069,284.565 C426.611,285.209,425.823,285.532,424.706,285.532 C424.434,285.532,424.224,285.521,424.078,285.499 C423.931,285.478,423.75,285.438,423.535,285.381 C423.535,285.381,423.535,283.619,423.535,283.619 C423.872,283.713,424.115,283.77,424.266,283.791 C424.416,283.813,424.548,283.824,424.663,283.824 C425.021,283.824,425.284,283.764,425.453,283.646 C425.621,283.528,425.762,283.383,425.877,283.211 C425.913,283.154,426.042,282.86,426.264,282.33 C426.486,281.8,426.647,281.407,426.747,281.149 C426.747,281.149,422.493,269.311,422.493,269.311 C422.493,269.311,424.684,269.311,424.684,269.311 C424.684,269.311,427.767,278.678,427.767,278.678 C427.767,278.678,430.872,269.311,430.872,269.311 z M442.452,275.724 C442.502,276.619,442.713,277.346,443.086,277.905 C443.795,278.95,445.044,279.473,446.835,279.473 C447.637,279.473,448.367,279.358,449.026,279.129 C450.301,278.685,450.938,277.89,450.938,276.744 C450.938,275.885,450.67,275.273,450.133,274.908 C449.588,274.549,448.736,274.238,447.576,273.973 C447.576,273.973,445.438,273.49,445.438,273.49 C444.042,273.174,443.054,272.827,442.474,272.448 C441.471,271.789,440.97,270.804,440.97,269.493 C440.97,268.076,441.46,266.912,442.441,266.002 C443.422,265.093,444.812,264.638,446.609,264.638 C448.264,264.638,449.669,265.037,450.826,265.836 C451.982,266.634,452.56,267.911,452.56,269.665 C452.56,269.665,450.552,269.665,450.552,269.665 C450.444,268.82,450.215,268.172,449.864,267.721 C449.212,266.897,448.106,266.486,446.545,266.486 C445.284,266.486,444.378,266.751,443.827,267.281 C443.276,267.811,443,268.426,443,269.128 C443,269.902,443.322,270.467,443.967,270.826 C444.389,271.055,445.345,271.341,446.835,271.685 C446.835,271.685,449.048,272.19,449.048,272.19 C450.115,272.433,450.938,272.766,451.518,273.189 C452.521,273.926,453.022,274.997,453.022,276.401 C453.022,278.148,452.387,279.398,451.116,280.15 C449.844,280.902,448.367,281.278,446.684,281.278 C444.722,281.278,443.186,280.776,442.076,279.774 C440.966,278.778,440.422,277.428,440.443,275.724 C440.443,275.724,442.452,275.724,442.452,275.724 z M455.858,266.099 C455.858,266.099,457.813,266.099,457.813,266.099 C457.813,266.099,457.813,269.311,457.813,269.311 C457.813,269.311,459.65,269.311,459.65,269.311 C459.65,269.311,459.65,270.89,459.65,270.89 C459.65,270.89,457.813,270.89,457.813,270.89 C457.813,270.89,457.813,278.399,457.813,278.399 C457.813,278.8,457.949,279.068,458.222,279.204 C458.372,279.283,458.623,279.323,458.974,279.323 C459.067,279.323,459.167,279.321,459.274,279.317 C459.382,279.314,459.507,279.305,459.65,279.29 C459.65,279.29,459.65,280.816,459.65,280.816 C459.428,280.88,459.197,280.927,458.957,280.955 C458.718,280.984,458.458,280.998,458.179,280.998 C457.276,280.998,456.664,280.767,456.342,280.305 C456.019,279.844,455.858,279.244,455.858,278.506 C455.858,278.506,455.858,270.89,455.858,270.89 C455.858,270.89,454.301,270.89,454.301,270.89 C454.301,270.89,454.301,269.311,454.301,269.311 C454.301,269.311,455.858,269.311,455.858,269.311 C455.858,269.311,455.858,266.099,455.858,266.099 z M463.066,277.754 C463.066,278.313,463.27,278.753,463.679,279.076 C464.087,279.398,464.57,279.559,465.129,279.559 C465.809,279.559,466.468,279.401,467.105,279.086 C468.18,278.563,468.717,277.708,468.717,276.519 C468.717,276.519,468.717,274.961,468.717,274.961 C468.48,275.112,468.176,275.237,467.804,275.337 C467.431,275.437,467.066,275.509,466.708,275.552 C466.708,275.552,465.537,275.702,465.537,275.702 C464.835,275.796,464.309,275.942,463.958,276.143 C463.364,276.479,463.066,277.017,463.066,277.754 z M467.75,273.844 C468.194,273.787,468.491,273.601,468.642,273.285 C468.727,273.114,468.77,272.867,468.77,272.544 C468.77,271.885,468.536,271.407,468.067,271.11 C467.598,270.813,466.926,270.664,466.053,270.664 C465.043,270.664,464.327,270.936,463.904,271.481 C463.668,271.782,463.514,272.229,463.442,272.824 C463.442,272.824,461.638,272.824,461.638,272.824 C461.673,271.406,462.134,270.419,463.018,269.864 C463.902,269.309,464.928,269.032,466.096,269.032 C467.449,269.032,468.548,269.289,469.393,269.805 C470.231,270.321,470.65,271.123,470.65,272.211 C470.65,272.211,470.65,278.839,470.65,278.839 C470.65,279.04,470.691,279.201,470.774,279.323 C470.856,279.444,471.03,279.505,471.295,279.505 C471.381,279.505,471.477,279.5,471.585,279.489 C471.692,279.478,471.807,279.462,471.929,279.441 C471.929,279.441,471.929,280.869,471.929,280.869 C471.628,280.955,471.399,281.009,471.241,281.031 C471.084,281.052,470.869,281.063,470.597,281.063 C469.931,281.063,469.447,280.826,469.146,280.354 C468.989,280.103,468.878,279.749,468.813,279.29 C468.419,279.806,467.854,280.254,467.116,280.633 C466.378,281.013,465.566,281.202,464.678,281.202 C463.611,281.202,462.739,280.878,462.062,280.23 C461.385,279.582,461.047,278.771,461.047,277.797 C461.047,276.73,461.38,275.903,462.046,275.316 C462.712,274.728,463.586,274.367,464.667,274.231 C464.667,274.231,467.75,273.844,467.75,273.844 z M474.206,266.099 C474.206,266.099,476.161,266.099,476.161,266.099 C476.161,266.099,476.161,269.311,476.161,269.311 C476.161,269.311,477.998,269.311,477.998,269.311 C477.998,269.311,477.998,270.89,477.998,270.89 C477.998,270.89,476.161,270.89,476.161,270.89 C476.161,270.89,476.161,278.399,476.161,278.399 C476.161,278.8,476.297,279.068,476.569,279.204 C476.72,279.283,476.97,279.323,477.321,279.323 C477.414,279.323,477.515,279.321,477.622,279.317 C477.729,279.314,477.855,279.305,477.998,279.29 C477.998,279.29,477.998,280.816,477.998,280.816 C477.776,280.88,477.545,280.927,477.305,280.955 C477.065,280.984,476.806,280.998,476.526,280.998 C475.624,280.998,475.012,280.767,474.689,280.305 C474.367,279.844,474.206,279.244,474.206,278.506 C474.206,278.506,474.206,270.89,474.206,270.89 C474.206,270.89,472.648,270.89,472.648,270.89 C472.648,270.89,472.648,269.311,472.648,269.311 C472.648,269.311,474.206,269.311,474.206,269.311 C474.206,269.311,474.206,266.099,474.206,266.099 z M484.723,269.053 C485.539,269.053,486.33,269.245,487.097,269.628 C487.863,270.011,488.447,270.507,488.848,271.116 C489.234,271.696,489.492,272.372,489.621,273.146 C489.736,273.676,489.793,274.521,489.793,275.681 C489.793,275.681,481.36,275.681,481.36,275.681 C481.396,276.848,481.672,277.785,482.187,278.49 C482.703,279.195,483.502,279.548,484.583,279.548 C485.593,279.548,486.398,279.215,487,278.549 C487.344,278.162,487.587,277.715,487.73,277.206 C487.73,277.206,489.632,277.206,489.632,277.206 C489.582,277.629,489.415,278.1,489.132,278.619 C488.849,279.138,488.532,279.562,488.182,279.892 C487.594,280.465,486.867,280.852,486.001,281.052 C485.535,281.167,485.009,281.224,484.422,281.224 C482.99,281.224,481.776,280.703,480.78,279.661 C479.785,278.619,479.287,277.16,479.287,275.284 C479.287,273.436,479.788,271.936,480.791,270.783 C481.794,269.63,483.104,269.053,484.723,269.053 z M487.806,274.145 C487.727,273.307,487.544,272.637,487.258,272.136 C486.728,271.205,485.843,270.74,484.604,270.74 C483.716,270.74,482.972,271.06,482.37,271.701 C481.768,272.342,481.45,273.157,481.414,274.145 C481.414,274.145,487.806,274.145,487.806,274.145 z M502.845,279.57 C504.127,279.57,505.006,279.084,505.482,278.114 C505.958,277.144,506.196,276.064,506.196,274.875 C506.196,273.801,506.024,272.927,505.681,272.254 C505.136,271.194,504.198,270.664,502.866,270.664 C501.684,270.664,500.825,271.116,500.288,272.018 C499.751,272.92,499.482,274.009,499.482,275.284 C499.482,276.508,499.751,277.529,500.288,278.345 C500.825,279.161,501.677,279.57,502.845,279.57 z M502.92,268.978 C504.402,268.978,505.656,269.472,506.68,270.46 C507.704,271.449,508.216,272.902,508.216,274.822 C508.216,276.676,507.765,278.209,506.862,279.419 C505.96,280.63,504.56,281.235,502.662,281.235 C501.079,281.235,499.823,280.699,498.892,279.629 C497.961,278.558,497.495,277.12,497.495,275.316 C497.495,273.382,497.986,271.842,498.967,270.697 C499.948,269.551,501.266,268.978,502.92,268.978 z M510.998,267.56 C511.027,266.758,511.166,266.171,511.417,265.798 C511.868,265.139,512.738,264.81,514.027,264.81 C514.149,264.81,514.274,264.813,514.403,264.821 C514.532,264.828,514.679,264.839,514.844,264.853 C514.844,264.853,514.844,266.615,514.844,266.615 C514.643,266.6,514.498,266.591,514.409,266.588 C514.319,266.584,514.235,266.582,514.156,266.582 C513.569,266.582,513.218,266.735,513.103,267.039 C512.989,267.343,512.932,268.118,512.932,269.365 C512.932,269.365,514.844,269.365,514.844,269.365 C514.844,269.365,514.844,270.89,514.844,270.89 C514.844,270.89,512.91,270.89,512.91,270.89 C512.91,270.89,512.91,280.816,512.91,280.816 C512.91,280.816,510.998,280.816,510.998,280.816 C510.998,280.816,510.998,270.89,510.998,270.89 C510.998,270.89,509.397,270.89,509.397,270.89 C509.397,270.89,509.397,269.365,509.397,269.365 C509.397,269.365,510.998,269.365,510.998,269.365 C510.998,269.365,510.998,267.56,510.998,267.56 z M529.646,264.606 C531.644,264.606,533.195,265.132,534.298,266.185 C535.401,267.238,536.013,268.434,536.135,269.773 C536.135,269.773,534.051,269.773,534.051,269.773 C533.814,268.756,533.343,267.95,532.638,267.356 C531.933,266.761,530.943,266.464,529.668,266.464 C528.114,266.464,526.859,267.01,525.903,268.102 C524.947,269.194,524.469,270.868,524.469,273.124 C524.469,274.972,524.9,276.471,525.763,277.62 C526.626,278.769,527.913,279.344,529.625,279.344 C531.2,279.344,532.4,278.739,533.224,277.529 C533.66,276.891,533.986,276.053,534.201,275.015 C534.201,275.015,536.285,275.015,536.285,275.015 C536.099,276.676,535.483,278.069,534.437,279.194 C533.184,280.547,531.494,281.224,529.367,281.224 C527.534,281.224,525.994,280.669,524.748,279.559 C523.108,278.091,522.288,275.824,522.288,272.759 C522.288,270.432,522.904,268.523,524.136,267.034 C525.468,265.415,527.305,264.606,529.646,264.606 z M543.192,279.57 C544.474,279.57,545.353,279.084,545.829,278.114 C546.306,277.144,546.544,276.064,546.544,274.875 C546.544,273.801,546.372,272.927,546.028,272.254 C545.484,271.194,544.546,270.664,543.214,270.664 C542.032,270.664,541.173,271.116,540.636,272.018 C540.099,272.92,539.83,274.009,539.83,275.284 C539.83,276.508,540.099,277.529,540.636,278.345 C541.173,279.161,542.025,279.57,543.192,279.57 z M543.267,268.978 C544.75,268.978,546.003,269.472,547.027,270.46 C548.051,271.449,548.563,272.902,548.563,274.822 C548.563,276.676,548.112,278.209,547.21,279.419 C546.307,280.63,544.907,281.235,543.01,281.235 C541.427,281.235,540.17,280.699,539.239,279.629 C538.308,278.558,537.843,277.12,537.843,275.316 C537.843,273.382,538.333,271.842,539.314,270.697 C540.295,269.551,541.613,268.978,543.267,268.978 z M550.862,269.311 C550.862,269.311,552.699,269.311,552.699,269.311 C552.699,269.311,552.699,270.944,552.699,270.944 C553.243,270.27,553.82,269.787,554.429,269.493 C555.037,269.2,555.714,269.053,556.459,269.053 C558.092,269.053,559.195,269.622,559.767,270.761 C560.083,271.384,560.24,272.276,560.24,273.436 C560.24,273.436,560.24,280.816,560.24,280.816 C560.24,280.816,558.274,280.816,558.274,280.816 C558.274,280.816,558.274,273.565,558.274,273.565 C558.274,272.863,558.17,272.297,557.963,271.867 C557.619,271.151,556.996,270.793,556.094,270.793 C555.635,270.793,555.259,270.84,554.966,270.933 C554.436,271.09,553.97,271.406,553.569,271.878 C553.247,272.258,553.037,272.65,552.941,273.055 C552.844,273.459,552.796,274.037,552.796,274.789 C552.796,274.789,552.796,280.816,552.796,280.816 C552.796,280.816,550.862,280.816,550.862,280.816 C550.862,280.816,550.862,269.311,550.862,269.311 z M564.247,277.206 C564.304,277.851,564.465,278.345,564.73,278.689 C565.217,279.312,566.062,279.623,567.266,279.623 C567.982,279.623,568.612,279.468,569.156,279.156 C569.7,278.845,569.973,278.363,569.973,277.711 C569.973,277.217,569.754,276.841,569.317,276.583 C569.038,276.426,568.487,276.243,567.663,276.035 C567.663,276.035,566.127,275.649,566.127,275.649 C565.146,275.405,564.422,275.133,563.957,274.832 C563.126,274.31,562.711,273.586,562.711,272.662 C562.711,271.574,563.103,270.693,563.887,270.02 C564.671,269.347,565.726,269.01,567.051,269.01 C568.784,269.01,570.033,269.519,570.8,270.535 C571.279,271.18,571.512,271.875,571.498,272.619 C571.498,272.619,569.672,272.619,569.672,272.619 C569.636,272.183,569.482,271.785,569.21,271.427 C568.766,270.919,567.996,270.664,566.9,270.664 C566.17,270.664,565.617,270.804,565.241,271.083 C564.865,271.363,564.677,271.731,564.677,272.19 C564.677,272.691,564.924,273.092,565.418,273.393 C565.704,273.572,566.127,273.729,566.685,273.866 C566.685,273.866,567.964,274.177,567.964,274.177 C569.353,274.514,570.284,274.84,570.757,275.155 C571.509,275.649,571.885,276.426,571.885,277.486 C571.885,278.51,571.496,279.394,570.719,280.139 C569.942,280.884,568.759,281.256,567.169,281.256 C565.457,281.256,564.245,280.868,563.533,280.091 C562.82,279.314,562.439,278.352,562.389,277.206 C562.389,277.206,564.247,277.206,564.247,277.206 z M578.534,268.978 C579.83,268.978,580.885,269.293,581.698,269.923 C582.51,270.553,582.999,271.638,583.164,273.178 C583.164,273.178,581.284,273.178,581.284,273.178 C581.169,272.469,580.908,271.88,580.5,271.411 C580.092,270.942,579.436,270.707,578.534,270.707 C577.302,270.707,576.421,271.309,575.891,272.512 C575.548,273.293,575.376,274.256,575.376,275.402 C575.376,276.555,575.619,277.525,576.106,278.313 C576.593,279.101,577.36,279.494,578.405,279.494 C579.207,279.494,579.843,279.249,580.312,278.759 C580.781,278.268,581.105,277.597,581.284,276.744 C581.284,276.744,583.164,276.744,583.164,276.744 C582.949,278.27,582.412,279.385,581.553,280.091 C580.693,280.796,579.594,281.149,578.255,281.149 C576.751,281.149,575.551,280.599,574.656,279.5 C573.761,278.401,573.313,277.027,573.313,275.38 C573.313,273.361,573.804,271.789,574.785,270.664 C575.766,269.54,577.016,268.978,578.534,268.978 z M585.098,269.365 C585.098,269.365,587.063,269.365,587.063,269.365 C587.063,269.365,587.063,280.816,587.063,280.816 C587.063,280.816,585.098,280.816,585.098,280.816 C585.098,280.816,585.098,269.365,585.098,269.365 z M585.098,265.035 C585.098,265.035,587.063,265.035,587.063,265.035 C587.063,265.035,587.063,267.227,587.063,267.227 C587.063,267.227,585.098,267.227,585.098,267.227 C585.098,267.227,585.098,265.035,585.098,265.035 z M594.551,279.57 C595.833,279.57,596.712,279.084,597.188,278.114 C597.664,277.144,597.902,276.064,597.902,274.875 C597.902,273.801,597.73,272.927,597.387,272.254 C596.842,271.194,595.904,270.664,594.572,270.664 C593.391,270.664,592.531,271.116,591.994,272.018 C591.457,272.92,591.188,274.009,591.188,275.284 C591.188,276.508,591.457,277.529,591.994,278.345 C592.531,279.161,593.383,279.57,594.551,279.57 z M594.626,268.978 C596.108,268.978,597.362,269.472,598.386,270.46 C599.41,271.449,599.922,272.902,599.922,274.822 C599.922,276.676,599.471,278.209,598.568,279.419 C597.666,280.63,596.266,281.235,594.368,281.235 C592.785,281.235,591.529,280.699,590.598,279.629 C589.667,278.558,589.201,277.12,589.201,275.316 C589.201,273.382,589.692,271.842,590.673,270.697 C591.654,269.551,592.972,268.978,594.626,268.978 z M604.154,269.311 C604.154,269.311,604.154,276.949,604.154,276.949 C604.154,277.536,604.247,278.016,604.433,278.388 C604.777,279.076,605.418,279.419,606.356,279.419 C607.703,279.419,608.619,278.818,609.106,277.615 C609.371,276.97,609.504,276.086,609.504,274.961 C609.504,274.961,609.504,269.311,609.504,269.311 C609.504,269.311,611.437,269.311,611.437,269.311 C611.437,269.311,611.437,280.816,611.437,280.816 C611.437,280.816,609.611,280.816,609.611,280.816 C609.611,280.816,609.633,279.118,609.633,279.118 C609.382,279.555,609.07,279.924,608.698,280.225 C607.961,280.826,607.065,281.127,606.013,281.127 C604.373,281.127,603.255,280.579,602.661,279.484 C602.339,278.896,602.178,278.112,602.178,277.131 C602.178,277.131,602.178,269.311,602.178,269.311 C602.178,269.311,604.154,269.311,604.154,269.311 z M615.605,277.206 C615.663,277.851,615.824,278.345,616.089,278.689 C616.576,279.312,617.421,279.623,618.624,279.623 C619.34,279.623,619.97,279.468,620.515,279.156 C621.059,278.845,621.331,278.363,621.331,277.711 C621.331,277.217,621.112,276.841,620.676,276.583 C620.396,276.426,619.845,276.243,619.021,276.035 C619.021,276.035,617.485,275.649,617.485,275.649 C616.504,275.405,615.781,275.133,615.315,274.832 C614.485,274.31,614.069,273.586,614.069,272.662 C614.069,271.574,614.461,270.693,615.245,270.02 C616.03,269.347,617.084,269.01,618.409,269.01 C620.142,269.01,621.392,269.519,622.158,270.535 C622.638,271.18,622.871,271.875,622.856,272.619 C622.856,272.619,621.03,272.619,621.03,272.619 C620.994,272.183,620.84,271.785,620.568,271.427 C620.124,270.919,619.354,270.664,618.259,270.664 C617.528,270.664,616.975,270.804,616.599,271.083 C616.223,271.363,616.035,271.731,616.035,272.19 C616.035,272.691,616.282,273.092,616.776,273.393 C617.063,273.572,617.485,273.729,618.044,273.866 C618.044,273.866,619.322,274.177,619.322,274.177 C620.711,274.514,621.642,274.84,622.115,275.155 C622.867,275.649,623.243,276.426,623.243,277.486 C623.243,278.51,622.855,279.394,622.078,280.139 C621.3,280.884,620.117,281.256,618.527,281.256 C616.816,281.256,615.604,280.868,614.891,280.091 C614.178,279.314,613.797,278.352,613.747,277.206 C613.747,277.206,615.605,277.206,615.605,277.206 z M625.456,269.311 C625.456,269.311,627.293,269.311,627.293,269.311 C627.293,269.311,627.293,270.944,627.293,270.944 C627.837,270.27,628.414,269.787,629.022,269.493 C629.631,269.2,630.308,269.053,631.053,269.053 C632.685,269.053,633.788,269.622,634.361,270.761 C634.676,271.384,634.834,272.276,634.834,273.436 C634.834,273.436,634.834,280.816,634.834,280.816 C634.834,280.816,632.868,280.816,632.868,280.816 C632.868,280.816,632.868,273.565,632.868,273.565 C632.868,272.863,632.764,272.297,632.557,271.867 C632.213,271.151,631.59,270.793,630.687,270.793 C630.229,270.793,629.853,270.84,629.559,270.933 C629.029,271.09,628.564,271.406,628.163,271.878 C627.841,272.258,627.631,272.65,627.535,273.055 C627.438,273.459,627.39,274.037,627.39,274.789 C627.39,274.789,627.39,280.816,627.39,280.816 C627.39,280.816,625.456,280.816,625.456,280.816 C625.456,280.816,625.456,269.311,625.456,269.311 z M642.482,269.053 C643.299,269.053,644.09,269.245,644.856,269.628 C645.623,270.011,646.206,270.507,646.607,271.116 C646.994,271.696,647.252,272.372,647.381,273.146 C647.495,273.676,647.553,274.521,647.553,275.681 C647.553,275.681,639.12,275.681,639.12,275.681 C639.156,276.848,639.432,277.785,639.947,278.49 C640.463,279.195,641.261,279.548,642.343,279.548 C643.352,279.548,644.158,279.215,644.76,278.549 C645.103,278.162,645.347,277.715,645.49,277.206 C645.49,277.206,647.391,277.206,647.391,277.206 C647.341,277.629,647.175,278.1,646.892,278.619 C646.609,279.138,646.292,279.562,645.941,279.892 C645.354,280.465,644.627,280.852,643.761,281.052 C643.295,281.167,642.769,281.224,642.182,281.224 C640.749,281.224,639.535,280.703,638.54,279.661 C637.544,278.619,637.047,277.16,637.047,275.284 C637.047,273.436,637.548,271.936,638.551,270.783 C639.553,269.63,640.864,269.053,642.482,269.053 z M645.565,274.145 C645.487,273.307,645.304,272.637,645.017,272.136 C644.487,271.205,643.603,270.74,642.364,270.74 C641.476,270.74,640.731,271.06,640.13,271.701 C639.528,272.342,639.21,273.157,639.174,274.145 C639.174,274.145,645.565,274.145,645.565,274.145 z M651.076,277.206 C651.133,277.851,651.294,278.345,651.559,278.689 C652.046,279.312,652.891,279.623,654.095,279.623 C654.811,279.623,655.441,279.468,655.985,279.156 C656.529,278.845,656.802,278.363,656.802,277.711 C656.802,277.217,656.583,276.841,656.146,276.583 C655.867,276.426,655.316,276.243,654.492,276.035 C654.492,276.035,652.956,275.649,652.956,275.649 C651.975,275.405,651.252,275.133,650.786,274.832 C649.955,274.31,649.54,273.586,649.54,272.662 C649.54,271.574,649.932,270.693,650.716,270.02 C651.5,269.347,652.555,269.01,653.88,269.01 C655.613,269.01,656.862,269.519,657.629,270.535 C658.109,271.18,658.341,271.875,658.327,272.619 C658.327,272.619,656.501,272.619,656.501,272.619 C656.465,272.183,656.311,271.785,656.039,271.427 C655.595,270.919,654.825,270.664,653.729,270.664 C652.999,270.664,652.446,270.804,652.07,271.083 C651.694,271.363,651.506,271.731,651.506,272.19 C651.506,272.691,651.753,273.092,652.247,273.393 C652.533,273.572,652.956,273.729,653.515,273.866 C653.515,273.866,654.793,274.177,654.793,274.177 C656.182,274.514,657.113,274.84,657.586,275.155 C658.338,275.649,658.714,276.426,658.714,277.486 C658.714,278.51,658.325,279.394,657.548,280.139 C656.771,280.884,655.588,281.256,653.998,281.256 C652.286,281.256,651.074,280.868,650.362,280.091 C649.649,279.314,649.268,278.352,649.218,277.206 C649.218,277.206,651.076,277.206,651.076,277.206 z M662.076,277.206 C662.133,277.851,662.294,278.345,662.559,278.689 C663.046,279.312,663.891,279.623,665.095,279.623 C665.811,279.623,666.441,279.468,666.985,279.156 C667.529,278.845,667.802,278.363,667.802,277.711 C667.802,277.217,667.583,276.841,667.146,276.583 C666.867,276.426,666.316,276.243,665.492,276.035 C665.492,276.035,663.956,275.649,663.956,275.649 C662.975,275.405,662.252,275.133,661.786,274.832 C660.955,274.31,660.54,273.586,660.54,272.662 C660.54,271.574,660.932,270.693,661.716,270.02 C662.5,269.347,663.555,269.01,664.88,269.01 C666.613,269.01,667.862,269.519,668.629,270.535 C669.109,271.18,669.341,271.875,669.327,272.619 C669.327,272.619,667.501,272.619,667.501,272.619 C667.465,272.183,667.311,271.785,667.039,271.427 C666.595,270.919,665.825,270.664,664.729,270.664 C663.999,270.664,663.446,270.804,663.07,271.083 C662.694,271.363,662.506,271.731,662.506,272.19 C662.506,272.691,662.753,273.092,663.247,273.393 C663.533,273.572,663.956,273.729,664.515,273.866 C664.515,273.866,665.793,274.177,665.793,274.177 C667.182,274.514,668.113,274.84,668.586,275.155 C669.338,275.649,669.714,276.426,669.714,277.486 C669.714,278.51,669.325,279.394,668.548,280.139 C667.771,280.884,666.588,281.256,664.998,281.256 C663.286,281.256,662.074,280.868,661.362,280.091 C660.649,279.314,660.268,278.352,660.218,277.206 C660.218,277.206,662.076,277.206,662.076,277.206 z"/>
      </g>
    </g>
  </g>
  <g id="NSC">
    <linearGradient x1="1264.06" y1="273.522" x2="1644.81" y2="273.522" gradientUnits="userSpaceOnUse" id="3">
      <stop style="stop-color:#0200bd;stop-opacity:1;"/>
      <stop offset="0.516355" style="stop-color:#24ff8e;stop-opacity:1;"/>
      <stop offset="1" style="stop-color:#ff0000;stop-opacity:1;"/>
    </linearGradient>
    <g id="Path">
      <path style="fill:url(#3);fill-opacity:1;fill-rule:evenodd;opacity:0.42;stroke:none;" d="M1264.06,233.696 C1264.06,233.696,1644.81,233.696,1644.81,233.696 C1644.81,233.696,1644.81,313.348,1644.81,313.348 C1644.81,313.348,1264.06,313.348,1264.06,313.348 C1264.06,313.348,1264.06,233.696,1264.06,233.696 z"/>
    </g>
    <g id="Text">
      <g id="Text">
        <path style="fill:#000000;fill-opacity:1;fill-rule:nonzero;opacity:1;stroke:none;" d="M1273.83,265.035 C1273.83,265.035,1276.36,265.035,1276.36,265.035 C1276.36,265.035,1284.33,277.819,1284.33,277.819 C1284.33,277.819,1284.33,265.035,1284.33,265.035 C1284.33,265.035,1286.36,265.035,1286.36,265.035 C1286.36,265.035,1286.36,280.816,1286.36,280.816 C1286.36,280.816,1283.96,280.816,1283.96,280.816 C1283.96,280.816,1275.87,268.043,1275.87,268.043 C1275.87,268.043,1275.87,280.816,1275.87,280.816 C1275.87,280.816,1273.83,280.816,1273.83,280.816 C1273.83,280.816,1273.83,265.035,1273.83,265.035 z M1294.03,279.57 C1295.31,279.57,1296.19,279.084,1296.66,278.114 C1297.14,277.144,1297.38,276.064,1297.38,274.875 C1297.38,273.801,1297.21,272.927,1296.86,272.254 C1296.32,271.194,1295.38,270.664,1294.05,270.664 C1292.87,270.664,1292.01,271.116,1291.47,272.018 C1290.93,272.92,1290.66,274.009,1290.66,275.283 C1290.66,276.508,1290.93,277.529,1291.47,278.345 C1292.01,279.161,1292.86,279.57,1294.03,279.57 z M1294.1,268.978 C1295.58,268.978,1296.84,269.472,1297.86,270.46 C1298.89,271.449,1299.4,272.902,1299.4,274.822 C1299.4,276.676,1298.95,278.209,1298.04,279.419 C1297.14,280.63,1295.74,281.235,1293.84,281.235 C1292.26,281.235,1291.01,280.699,1290.07,279.629 C1289.14,278.558,1288.68,277.12,1288.68,275.316 C1288.68,273.382,1289.17,271.842,1290.15,270.697 C1291.13,269.551,1292.45,268.978,1294.1,268.978 z M1301.7,269.311 C1301.7,269.311,1303.53,269.311,1303.53,269.311 C1303.53,269.311,1303.53,270.944,1303.53,270.944 C1304.08,270.27,1304.65,269.787,1305.26,269.493 C1305.87,269.2,1306.55,269.053,1307.29,269.053 C1308.93,269.053,1310.03,269.622,1310.6,270.761 C1310.92,271.384,1311.08,272.276,1311.08,273.436 C1311.08,273.436,1311.08,280.816,1311.08,280.816 C1311.08,280.816,1309.11,280.816,1309.11,280.816 C1309.11,280.816,1309.11,273.565,1309.11,273.565 C1309.11,272.863,1309.01,272.297,1308.8,271.867 C1308.45,271.151,1307.83,270.793,1306.93,270.793 C1306.47,270.793,1306.09,270.84,1305.8,270.933 C1305.27,271.09,1304.81,271.406,1304.4,271.878 C1304.08,272.258,1303.87,272.65,1303.78,273.054 C1303.68,273.459,1303.63,274.037,1303.63,274.789 C1303.63,274.789,1303.63,280.816,1303.63,280.816 C1303.63,280.816,1301.7,280.816,1301.7,280.816 C1301.7,280.816,1301.7,269.311,1301.7,269.311 z M1313.43,273.694 C1313.43,273.694,1318.82,273.694,1318.82,273.694 C1318.82,273.694,1318.82,275.681,1318.82,275.681 C1318.82,275.681,1313.43,275.681,1313.43,275.681 C1313.43,275.681,1313.43,273.694,1313.43,273.694 z M1325.82,279.57 C1327.11,279.57,1327.99,279.084,1328.46,278.114 C1328.94,277.144,1329.18,276.064,1329.18,274.875 C1329.18,273.801,1329,272.927,1328.66,272.254 C1328.12,271.194,1327.18,270.664,1325.85,270.664 C1324.66,270.664,1323.8,271.116,1323.27,272.018 C1322.73,272.92,1322.46,274.009,1322.46,275.283 C1322.46,276.508,1322.73,277.529,1323.27,278.345 C1323.8,279.161,1324.66,279.57,1325.82,279.57 z M1325.9,268.978 C1327.38,268.978,1328.64,269.472,1329.66,270.46 C1330.68,271.449,1331.2,272.902,1331.2,274.822 C1331.2,276.676,1330.74,278.209,1329.84,279.419 C1328.94,280.63,1327.54,281.235,1325.64,281.235 C1324.06,281.235,1322.8,280.699,1321.87,279.629 C1320.94,278.558,1320.47,277.12,1320.47,275.316 C1320.47,273.382,1320.97,271.842,1321.95,270.697 C1322.93,269.551,1324.24,268.978,1325.9,268.978 z M1333.55,269.311 C1333.55,269.311,1335.38,269.311,1335.38,269.311 C1335.38,269.311,1335.38,271.298,1335.38,271.298 C1335.54,270.911,1335.9,270.441,1336.49,269.886 C1337.08,269.331,1337.76,269.053,1338.52,269.053 C1338.56,269.053,1338.62,269.057,1338.7,269.064 C1338.79,269.071,1338.94,269.085,1339.14,269.107 C1339.14,269.107,1339.14,271.148,1339.14,271.148 C1339.03,271.126,1338.92,271.112,1338.83,271.105 C1338.73,271.098,1338.63,271.094,1338.51,271.094 C1337.54,271.094,1336.79,271.407,1336.27,272.034 C1335.74,272.661,1335.48,273.382,1335.48,274.199 C1335.48,274.199,1335.48,280.816,1335.48,280.816 C1335.48,280.816,1333.55,280.816,1333.55,280.816 C1333.55,280.816,1333.55,269.311,1333.55,269.311 z M1342.04,275.198 C1342.04,276.429,1342.31,277.461,1342.83,278.291 C1343.35,279.122,1344.19,279.537,1345.34,279.537 C1346.24,279.537,1346.97,279.152,1347.55,278.383 C1348.13,277.613,1348.41,276.508,1348.41,275.069 C1348.41,273.615,1348.12,272.539,1347.52,271.841 C1346.93,271.142,1346.19,270.793,1345.32,270.793 C1344.35,270.793,1343.56,271.166,1342.95,271.91 C1342.35,272.655,1342.04,273.751,1342.04,275.198 z M1344.96,269.107 C1345.84,269.107,1346.57,269.293,1347.17,269.665 C1347.51,269.88,1347.9,270.256,1348.34,270.793 C1348.34,270.793,1348.34,264.982,1348.34,264.982 C1348.34,264.982,1350.2,264.982,1350.2,264.982 C1350.2,264.982,1350.2,280.816,1350.2,280.816 C1350.2,280.816,1348.46,280.816,1348.46,280.816 C1348.46,280.816,1348.46,279.215,1348.46,279.215 C1348.01,279.924,1347.47,280.436,1346.86,280.751 C1346.24,281.066,1345.54,281.224,1344.74,281.224 C1343.46,281.224,1342.35,280.685,1341.41,279.607 C1340.47,278.529,1340,277.095,1340,275.305 C1340,273.629,1340.43,272.177,1341.29,270.949 C1342.14,269.721,1343.37,269.107,1344.96,269.107 z M1353.06,269.365 C1353.06,269.365,1355.02,269.365,1355.02,269.365 C1355.02,269.365,1355.02,280.816,1355.02,280.816 C1355.02,280.816,1353.06,280.816,1353.06,280.816 C1353.06,280.816,1353.06,269.365,1353.06,269.365 z M1353.06,265.035 C1353.06,265.035,1355.02,265.035,1355.02,265.035 C1355.02,265.035,1355.02,267.227,1355.02,267.227 C1355.02,267.227,1353.06,267.227,1353.06,267.227 C1353.06,267.227,1353.06,265.035,1353.06,265.035 z M1357.94,269.311 C1357.94,269.311,1359.78,269.311,1359.78,269.311 C1359.78,269.311,1359.78,270.944,1359.78,270.944 C1360.32,270.27,1360.9,269.787,1361.51,269.493 C1362.12,269.2,1362.8,269.053,1363.54,269.053 C1365.17,269.053,1366.28,269.622,1366.85,270.761 C1367.16,271.384,1367.32,272.276,1367.32,273.436 C1367.32,273.436,1367.32,280.816,1367.32,280.816 C1367.32,280.816,1365.36,280.816,1365.36,280.816 C1365.36,280.816,1365.36,273.565,1365.36,273.565 C1365.36,272.863,1365.25,272.297,1365.04,271.867 C1364.7,271.151,1364.08,270.793,1363.17,270.793 C1362.72,270.793,1362.34,270.84,1362.05,270.933 C1361.52,271.09,1361.05,271.406,1360.65,271.878 C1360.33,272.258,1360.12,272.65,1360.02,273.054 C1359.93,273.459,1359.88,274.037,1359.88,274.789 C1359.88,274.789,1359.88,280.816,1359.88,280.816 C1359.88,280.816,1357.94,280.816,1357.94,280.816 C1357.94,280.816,1357.94,269.311,1357.94,269.311 z M1371.66,277.754 C1371.66,278.313,1371.87,278.753,1372.27,279.075 C1372.68,279.398,1373.16,279.559,1373.72,279.559 C1374.4,279.559,1375.06,279.401,1375.7,279.086 C1376.77,278.563,1377.31,277.708,1377.31,276.519 C1377.31,276.519,1377.31,274.961,1377.31,274.961 C1377.08,275.112,1376.77,275.237,1376.4,275.337 C1376.03,275.437,1375.66,275.509,1375.3,275.552 C1375.3,275.552,1374.13,275.702,1374.13,275.702 C1373.43,275.796,1372.9,275.942,1372.55,276.143 C1371.96,276.479,1371.66,277.017,1371.66,277.754 z M1376.34,273.844 C1376.79,273.787,1377.09,273.601,1377.24,273.285 C1377.32,273.114,1377.37,272.866,1377.37,272.544 C1377.37,271.885,1377.13,271.407,1376.66,271.11 C1376.19,270.813,1375.52,270.664,1374.65,270.664 C1373.64,270.664,1372.92,270.936,1372.5,271.481 C1372.26,271.782,1372.11,272.229,1372.04,272.824 C1372.04,272.824,1370.23,272.824,1370.23,272.824 C1370.27,271.406,1370.73,270.419,1371.61,269.864 C1372.5,269.309,1373.52,269.032,1374.69,269.032 C1376.04,269.032,1377.14,269.289,1377.99,269.805 C1378.83,270.321,1379.24,271.123,1379.24,272.211 C1379.24,272.211,1379.24,278.839,1379.24,278.839 C1379.24,279.04,1379.29,279.201,1379.37,279.323 C1379.45,279.444,1379.62,279.505,1379.89,279.505 C1379.98,279.505,1380.07,279.5,1380.18,279.489 C1380.29,279.478,1380.4,279.462,1380.52,279.441 C1380.52,279.441,1380.52,280.869,1380.52,280.869 C1380.22,280.955,1379.99,281.009,1379.84,281.031 C1379.68,281.052,1379.46,281.063,1379.19,281.063 C1378.53,281.063,1378.04,280.826,1377.74,280.354 C1377.58,280.103,1377.47,279.749,1377.41,279.29 C1377.01,279.806,1376.45,280.254,1375.71,280.633 C1374.97,281.013,1374.16,281.202,1373.27,281.202 C1372.21,281.202,1371.33,280.878,1370.66,280.23 C1369.98,279.582,1369.64,278.771,1369.64,277.797 C1369.64,276.73,1369.97,275.903,1370.64,275.316 C1371.31,274.728,1372.18,274.367,1373.26,274.231 C1373.26,274.231,1376.34,273.844,1376.34,273.844 z M1382.47,269.311 C1382.47,269.311,1384.3,269.311,1384.3,269.311 C1384.3,269.311,1384.3,271.298,1384.3,271.298 C1384.45,270.911,1384.82,270.441,1385.41,269.886 C1386,269.331,1386.68,269.053,1387.44,269.053 C1387.48,269.053,1387.54,269.057,1387.62,269.064 C1387.71,269.071,1387.86,269.085,1388.06,269.107 C1388.06,269.107,1388.06,271.148,1388.06,271.148 C1387.95,271.126,1387.84,271.112,1387.75,271.105 C1387.65,271.098,1387.55,271.094,1387.43,271.094 C1386.46,271.094,1385.71,271.407,1385.19,272.034 C1384.66,272.661,1384.4,273.382,1384.4,274.199 C1384.4,274.199,1384.4,280.816,1384.4,280.816 C1384.4,280.816,1382.47,280.816,1382.47,280.816 C1382.47,280.816,1382.47,269.311,1382.47,269.311 z M1396.93,269.311 C1396.93,269.311,1399.06,269.311,1399.06,269.311 C1398.79,270.048,1398.19,271.731,1397.25,274.36 C1396.55,276.336,1395.96,277.948,1395.49,279.194 C1394.37,282.13,1393.58,283.92,1393.12,284.565 C1392.67,285.209,1391.88,285.532,1390.76,285.532 C1390.49,285.532,1390.28,285.521,1390.13,285.499 C1389.99,285.478,1389.8,285.438,1389.59,285.381 C1389.59,285.381,1389.59,283.619,1389.59,283.619 C1389.93,283.713,1390.17,283.77,1390.32,283.791 C1390.47,283.813,1390.6,283.824,1390.72,283.824 C1391.08,283.824,1391.34,283.764,1391.51,283.646 C1391.68,283.528,1391.82,283.383,1391.93,283.211 C1391.97,283.154,1392.1,282.86,1392.32,282.33 C1392.54,281.8,1392.7,281.407,1392.8,281.149 C1392.8,281.149,1388.55,269.311,1388.55,269.311 C1388.55,269.311,1390.74,269.311,1390.74,269.311 C1390.74,269.311,1393.82,278.678,1393.82,278.678 C1393.82,278.678,1396.93,269.311,1396.93,269.311 z M1408.51,275.724 C1408.56,276.619,1408.77,277.346,1409.14,277.905 C1409.85,278.95,1411.1,279.473,1412.89,279.473 C1413.69,279.473,1414.42,279.358,1415.08,279.129 C1416.36,278.685,1416.99,277.89,1416.99,276.744 C1416.99,275.885,1416.72,275.273,1416.19,274.908 C1415.64,274.549,1414.79,274.238,1413.63,273.973 C1413.63,273.973,1411.49,273.49,1411.49,273.49 C1410.1,273.174,1409.11,272.827,1408.53,272.448 C1407.53,271.789,1407.02,270.804,1407.02,269.493 C1407.02,268.075,1407.51,266.912,1408.5,266.002 C1409.48,265.093,1410.87,264.638,1412.66,264.638 C1414.32,264.638,1415.72,265.037,1416.88,265.836 C1418.04,266.634,1418.62,267.911,1418.62,269.665 C1418.62,269.665,1416.61,269.665,1416.61,269.665 C1416.5,268.82,1416.27,268.172,1415.92,267.721 C1415.27,266.897,1414.16,266.486,1412.6,266.486 C1411.34,266.486,1410.43,266.751,1409.88,267.281 C1409.33,267.81,1409.05,268.426,1409.05,269.128 C1409.05,269.902,1409.38,270.467,1410.02,270.825 C1410.44,271.055,1411.4,271.341,1412.89,271.685 C1412.89,271.685,1415.1,272.19,1415.1,272.19 C1416.17,272.433,1416.99,272.766,1417.57,273.189 C1418.58,273.926,1419.08,274.997,1419.08,276.401 C1419.08,278.148,1418.44,279.398,1417.17,280.15 C1415.9,280.902,1414.42,281.278,1412.74,281.278 C1410.78,281.278,1409.24,280.776,1408.13,279.774 C1407.02,278.778,1406.48,277.428,1406.5,275.724 C1406.5,275.724,1408.51,275.724,1408.51,275.724 z M1421.91,266.099 C1421.91,266.099,1423.87,266.099,1423.87,266.099 C1423.87,266.099,1423.87,269.311,1423.87,269.311 C1423.87,269.311,1425.7,269.311,1425.7,269.311 C1425.7,269.311,1425.7,270.89,1425.7,270.89 C1425.7,270.89,1423.87,270.89,1423.87,270.89 C1423.87,270.89,1423.87,278.399,1423.87,278.399 C1423.87,278.8,1424,279.068,1424.28,279.204 C1424.43,279.283,1424.68,279.323,1425.03,279.323 C1425.12,279.323,1425.22,279.321,1425.33,279.317 C1425.44,279.314,1425.56,279.305,1425.7,279.29 C1425.7,279.29,1425.7,280.816,1425.7,280.816 C1425.48,280.88,1425.25,280.927,1425.01,280.955 C1424.77,280.984,1424.51,280.998,1424.23,280.998 C1423.33,280.998,1422.72,280.767,1422.4,280.305 C1422.07,279.844,1421.91,279.244,1421.91,278.506 C1421.91,278.506,1421.91,270.89,1421.91,270.89 C1421.91,270.89,1420.36,270.89,1420.36,270.89 C1420.36,270.89,1420.36,269.311,1420.36,269.311 C1420.36,269.311,1421.91,269.311,1421.91,269.311 C1421.91,269.311,1421.91,266.099,1421.91,266.099 z M1429.12,277.754 C1429.12,278.313,1429.33,278.753,1429.73,279.075 C1430.14,279.398,1430.62,279.559,1431.18,279.559 C1431.86,279.559,1432.52,279.401,1433.16,279.086 C1434.23,278.563,1434.77,277.708,1434.77,276.519 C1434.77,276.519,1434.77,274.961,1434.77,274.961 C1434.54,275.112,1434.23,275.237,1433.86,275.337 C1433.49,275.437,1433.12,275.509,1432.76,275.552 C1432.76,275.552,1431.59,275.702,1431.59,275.702 C1430.89,275.796,1430.36,275.942,1430.01,276.143 C1429.42,276.479,1429.12,277.017,1429.12,277.754 z M1433.8,273.844 C1434.25,273.787,1434.55,273.601,1434.7,273.285 C1434.78,273.114,1434.83,272.866,1434.83,272.544 C1434.83,271.885,1434.59,271.407,1434.12,271.11 C1433.65,270.813,1432.98,270.664,1432.11,270.664 C1431.1,270.664,1430.38,270.936,1429.96,271.481 C1429.72,271.782,1429.57,272.229,1429.5,272.824 C1429.5,272.824,1427.69,272.824,1427.69,272.824 C1427.73,271.406,1428.19,270.419,1429.07,269.864 C1429.96,269.309,1430.98,269.032,1432.15,269.032 C1433.5,269.032,1434.6,269.289,1435.45,269.805 C1436.29,270.321,1436.7,271.123,1436.7,272.211 C1436.7,272.211,1436.7,278.839,1436.7,278.839 C1436.7,279.04,1436.75,279.201,1436.83,279.323 C1436.91,279.444,1437.08,279.505,1437.35,279.505 C1437.44,279.505,1437.53,279.5,1437.64,279.489 C1437.75,279.478,1437.86,279.462,1437.98,279.441 C1437.98,279.441,1437.98,280.869,1437.98,280.869 C1437.68,280.955,1437.45,281.009,1437.3,281.031 C1437.14,281.052,1436.92,281.063,1436.65,281.063 C1435.99,281.063,1435.5,280.826,1435.2,280.354 C1435.04,280.103,1434.93,279.749,1434.87,279.29 C1434.47,279.806,1433.91,280.254,1433.17,280.633 C1432.43,281.013,1431.62,281.202,1430.73,281.202 C1429.67,281.202,1428.79,280.878,1428.12,280.23 C1427.44,279.582,1427.1,278.771,1427.1,277.797 C1427.1,276.73,1427.43,275.903,1428.1,275.316 C1428.77,274.728,1429.64,274.367,1430.72,274.231 C1430.72,274.231,1433.8,273.844,1433.8,273.844 z M1440.26,266.099 C1440.26,266.099,1442.22,266.099,1442.22,266.099 C1442.22,266.099,1442.22,269.311,1442.22,269.311 C1442.22,269.311,1444.05,269.311,1444.05,269.311 C1444.05,269.311,1444.05,270.89,1444.05,270.89 C1444.05,270.89,1442.22,270.89,1442.22,270.89 C1442.22,270.89,1442.22,278.399,1442.22,278.399 C1442.22,278.8,1442.35,279.068,1442.62,279.204 C1442.77,279.283,1443.02,279.323,1443.38,279.323 C1443.47,279.323,1443.57,279.321,1443.68,279.317 C1443.78,279.314,1443.91,279.305,1444.05,279.29 C1444.05,279.29,1444.05,280.816,1444.05,280.816 C1443.83,280.88,1443.6,280.927,1443.36,280.955 C1443.12,280.984,1442.86,280.998,1442.58,280.998 C1441.68,280.998,1441.07,280.767,1440.74,280.305 C1440.42,279.844,1440.26,279.244,1440.26,278.506 C1440.26,278.506,1440.26,270.89,1440.26,270.89 C1440.26,270.89,1438.7,270.89,1438.7,270.89 C1438.7,270.89,1438.7,269.311,1438.7,269.311 C1438.7,269.311,1440.26,269.311,1440.26,269.311 C1440.26,269.311,1440.26,266.099,1440.26,266.099 z M1450.78,269.053 C1451.59,269.053,1452.39,269.245,1453.15,269.628 C1453.92,270.011,1454.5,270.507,1454.9,271.116 C1455.29,271.696,1455.55,272.372,1455.68,273.146 C1455.79,273.676,1455.85,274.521,1455.85,275.681 C1455.85,275.681,1447.41,275.681,1447.41,275.681 C1447.45,276.848,1447.73,277.785,1448.24,278.49 C1448.76,279.195,1449.56,279.548,1450.64,279.548 C1451.65,279.548,1452.45,279.215,1453.05,278.549 C1453.4,278.162,1453.64,277.715,1453.79,277.206 C1453.79,277.206,1455.69,277.206,1455.69,277.206 C1455.64,277.629,1455.47,278.1,1455.19,278.619 C1454.9,279.138,1454.59,279.562,1454.24,279.892 C1453.65,280.465,1452.92,280.852,1452.06,281.052 C1451.59,281.167,1451.06,281.224,1450.48,281.224 C1449.04,281.224,1447.83,280.703,1446.83,279.661 C1445.84,278.619,1445.34,277.16,1445.34,275.283 C1445.34,273.436,1445.84,271.935,1446.85,270.783 C1447.85,269.63,1449.16,269.053,1450.78,269.053 z M1453.86,274.145 C1453.78,273.307,1453.6,272.637,1453.31,272.136 C1452.78,271.205,1451.9,270.74,1450.66,270.74 C1449.77,270.74,1449.03,271.06,1448.42,271.701 C1447.82,272.342,1447.5,273.157,1447.47,274.145 C1447.47,274.145,1453.86,274.145,1453.86,274.145 z M1468.9,279.57 C1470.18,279.57,1471.06,279.084,1471.54,278.114 C1472.01,277.144,1472.25,276.064,1472.25,274.875 C1472.25,273.801,1472.08,272.927,1471.74,272.254 C1471.19,271.194,1470.25,270.664,1468.92,270.664 C1467.74,270.664,1466.88,271.116,1466.34,272.018 C1465.81,272.92,1465.54,274.009,1465.54,275.283 C1465.54,276.508,1465.81,277.529,1466.34,278.345 C1466.88,279.161,1467.73,279.57,1468.9,279.57 z M1468.97,268.978 C1470.46,268.978,1471.71,269.472,1472.73,270.46 C1473.76,271.449,1474.27,272.902,1474.27,274.822 C1474.27,276.676,1473.82,278.209,1472.92,279.419 C1472.01,280.63,1470.61,281.235,1468.72,281.235 C1467.13,281.235,1465.88,280.699,1464.95,279.629 C1464.02,278.558,1463.55,277.12,1463.55,275.316 C1463.55,273.382,1464.04,271.842,1465.02,270.697 C1466,269.551,1467.32,268.978,1468.97,268.978 z M1477.05,267.56 C1477.08,266.758,1477.22,266.171,1477.47,265.798 C1477.92,265.139,1478.79,264.81,1480.08,264.81 C1480.2,264.81,1480.33,264.813,1480.46,264.821 C1480.59,264.828,1480.73,264.839,1480.9,264.853 C1480.9,264.853,1480.9,266.615,1480.9,266.615 C1480.7,266.6,1480.55,266.591,1480.46,266.588 C1480.37,266.584,1480.29,266.582,1480.21,266.582 C1479.62,266.582,1479.27,266.734,1479.16,267.039 C1479.04,267.343,1478.99,268.118,1478.99,269.365 C1478.99,269.365,1480.9,269.365,1480.9,269.365 C1480.9,269.365,1480.9,270.89,1480.9,270.89 C1480.9,270.89,1478.96,270.89,1478.96,270.89 C1478.96,270.89,1478.96,280.816,1478.96,280.816 C1478.96,280.816,1477.05,280.816,1477.05,280.816 C1477.05,280.816,1477.05,270.89,1477.05,270.89 C1477.05,270.89,1475.45,270.89,1475.45,270.89 C1475.45,270.89,1475.45,269.365,1475.45,269.365 C1475.45,269.365,1477.05,269.365,1477.05,269.365 C1477.05,269.365,1477.05,267.56,1477.05,267.56 z M1495.7,264.606 C1497.7,264.606,1499.25,265.132,1500.35,266.185 C1501.46,267.238,1502.07,268.434,1502.19,269.773 C1502.19,269.773,1500.11,269.773,1500.11,269.773 C1499.87,268.756,1499.4,267.95,1498.69,267.356 C1497.99,266.761,1497,266.464,1495.72,266.464 C1494.17,266.464,1492.91,267.01,1491.96,268.102 C1491,269.194,1490.52,270.868,1490.52,273.124 C1490.52,274.972,1490.95,276.47,1491.82,277.62 C1492.68,278.769,1493.97,279.344,1495.68,279.344 C1497.26,279.344,1498.45,278.739,1499.28,277.529 C1499.72,276.891,1500.04,276.053,1500.26,275.015 C1500.26,275.015,1502.34,275.015,1502.34,275.015 C1502.15,276.676,1501.54,278.069,1500.49,279.194 C1499.24,280.547,1497.55,281.224,1495.42,281.224 C1493.59,281.224,1492.05,280.669,1490.8,279.559 C1489.16,278.091,1488.34,275.824,1488.34,272.759 C1488.34,270.432,1488.96,268.523,1490.19,267.033 C1491.52,265.415,1493.36,264.606,1495.7,264.606 z M1509.25,279.57 C1510.53,279.57,1511.41,279.084,1511.88,278.114 C1512.36,277.144,1512.6,276.064,1512.6,274.875 C1512.6,273.801,1512.43,272.927,1512.08,272.254 C1511.54,271.194,1510.6,270.664,1509.27,270.664 C1508.09,270.664,1507.23,271.116,1506.69,272.018 C1506.15,272.92,1505.88,274.009,1505.88,275.283 C1505.88,276.508,1506.15,277.529,1506.69,278.345 C1507.23,279.161,1508.08,279.57,1509.25,279.57 z M1509.32,268.978 C1510.8,268.978,1512.06,269.472,1513.08,270.46 C1514.11,271.449,1514.62,272.902,1514.62,274.822 C1514.62,276.676,1514.17,278.209,1513.26,279.419 C1512.36,280.63,1510.96,281.235,1509.06,281.235 C1507.48,281.235,1506.22,280.699,1505.29,279.629 C1504.36,278.558,1503.9,277.12,1503.9,275.316 C1503.9,273.382,1504.39,271.842,1505.37,270.697 C1506.35,269.551,1507.67,268.978,1509.32,268.978 z M1516.92,269.311 C1516.92,269.311,1518.75,269.311,1518.75,269.311 C1518.75,269.311,1518.75,270.944,1518.75,270.944 C1519.3,270.27,1519.87,269.787,1520.48,269.493 C1521.09,269.2,1521.77,269.053,1522.51,269.053 C1524.15,269.053,1525.25,269.622,1525.82,270.761 C1526.14,271.384,1526.29,272.276,1526.29,273.436 C1526.29,273.436,1526.29,280.816,1526.29,280.816 C1526.29,280.816,1524.33,280.816,1524.33,280.816 C1524.33,280.816,1524.33,273.565,1524.33,273.565 C1524.33,272.863,1524.23,272.297,1524.02,271.867 C1523.67,271.151,1523.05,270.793,1522.15,270.793 C1521.69,270.793,1521.31,270.84,1521.02,270.933 C1520.49,271.09,1520.02,271.406,1519.62,271.878 C1519.3,272.258,1519.09,272.65,1519,273.054 C1518.9,273.459,1518.85,274.037,1518.85,274.789 C1518.85,274.789,1518.85,280.816,1518.85,280.816 C1518.85,280.816,1516.92,280.816,1516.92,280.816 C1516.92,280.816,1516.92,269.311,1516.92,269.311 z M1530.3,277.206 C1530.36,277.851,1530.52,278.345,1530.79,278.689 C1531.27,279.312,1532.12,279.623,1533.32,279.623 C1534.04,279.623,1534.67,279.468,1535.21,279.156 C1535.76,278.845,1536.03,278.363,1536.03,277.711 C1536.03,277.217,1535.81,276.841,1535.37,276.583 C1535.09,276.426,1534.54,276.243,1533.72,276.035 C1533.72,276.035,1532.18,275.649,1532.18,275.649 C1531.2,275.405,1530.48,275.133,1530.01,274.832 C1529.18,274.31,1528.77,273.586,1528.77,272.662 C1528.77,271.574,1529.16,270.693,1529.94,270.02 C1530.73,269.347,1531.78,269.01,1533.11,269.01 C1534.84,269.01,1536.09,269.518,1536.85,270.535 C1537.33,271.18,1537.57,271.875,1537.55,272.619 C1537.55,272.619,1535.73,272.619,1535.73,272.619 C1535.69,272.183,1535.54,271.785,1535.26,271.427 C1534.82,270.919,1534.05,270.664,1532.95,270.664 C1532.22,270.664,1531.67,270.804,1531.3,271.083 C1530.92,271.363,1530.73,271.731,1530.73,272.19 C1530.73,272.691,1530.98,273.092,1531.47,273.393 C1531.76,273.572,1532.18,273.729,1532.74,273.866 C1532.74,273.866,1534.02,274.177,1534.02,274.177 C1535.41,274.514,1536.34,274.839,1536.81,275.155 C1537.56,275.649,1537.94,276.426,1537.94,277.486 C1537.94,278.51,1537.55,279.394,1536.77,280.139 C1536,280.884,1534.81,281.256,1533.22,281.256 C1531.51,281.256,1530.3,280.868,1529.59,280.091 C1528.87,279.314,1528.49,278.352,1528.44,277.206 C1528.44,277.206,1530.3,277.206,1530.3,277.206 z M1544.59,268.978 C1545.89,268.978,1546.94,269.293,1547.75,269.923 C1548.57,270.553,1549.05,271.638,1549.22,273.178 C1549.22,273.178,1547.34,273.178,1547.34,273.178 C1547.22,272.469,1546.96,271.88,1546.55,271.411 C1546.15,270.942,1545.49,270.707,1544.59,270.707 C1543.36,270.707,1542.48,271.309,1541.95,272.512 C1541.6,273.293,1541.43,274.256,1541.43,275.402 C1541.43,276.555,1541.67,277.525,1542.16,278.313 C1542.65,279.101,1543.41,279.494,1544.46,279.494 C1545.26,279.494,1545.9,279.249,1546.37,278.759 C1546.84,278.268,1547.16,277.597,1547.34,276.744 C1547.34,276.744,1549.22,276.744,1549.22,276.744 C1549,278.27,1548.47,279.385,1547.61,280.091 C1546.75,280.796,1545.65,281.149,1544.31,281.149 C1542.81,281.149,1541.61,280.599,1540.71,279.5 C1539.82,278.401,1539.37,277.027,1539.37,275.38 C1539.37,273.361,1539.86,271.789,1540.84,270.664 C1541.82,269.54,1543.07,268.978,1544.59,268.978 z M1551.15,269.365 C1551.15,269.365,1553.12,269.365,1553.12,269.365 C1553.12,269.365,1553.12,280.816,1553.12,280.816 C1553.12,280.816,1551.15,280.816,1551.15,280.816 C1551.15,280.816,1551.15,269.365,1551.15,269.365 z M1551.15,265.035 C1551.15,265.035,1553.12,265.035,1553.12,265.035 C1553.12,265.035,1553.12,267.227,1553.12,267.227 C1553.12,267.227,1551.15,267.227,1551.15,267.227 C1551.15,267.227,1551.15,265.035,1551.15,265.035 z M1560.61,279.57 C1561.89,279.57,1562.77,279.084,1563.24,278.114 C1563.72,277.144,1563.96,276.064,1563.96,274.875 C1563.96,273.801,1563.79,272.927,1563.44,272.254 C1562.9,271.194,1561.96,270.664,1560.63,270.664 C1559.45,270.664,1558.59,271.116,1558.05,272.018 C1557.51,272.92,1557.24,274.009,1557.24,275.283 C1557.24,276.508,1557.51,277.529,1558.05,278.345 C1558.59,279.161,1559.44,279.57,1560.61,279.57 z M1560.68,268.978 C1562.16,268.978,1563.42,269.472,1564.44,270.46 C1565.46,271.449,1565.98,272.902,1565.98,274.822 C1565.98,276.676,1565.53,278.209,1564.62,279.419 C1563.72,280.63,1562.32,281.235,1560.42,281.235 C1558.84,281.235,1557.58,280.699,1556.65,279.629 C1555.72,278.558,1555.26,277.12,1555.26,275.316 C1555.26,273.382,1555.75,271.842,1556.73,270.697 C1557.71,269.551,1559.03,268.978,1560.68,268.978 z M1570.21,269.311 C1570.21,269.311,1570.21,276.949,1570.21,276.949 C1570.21,277.536,1570.3,278.016,1570.49,278.388 C1570.83,279.075,1571.47,279.419,1572.41,279.419 C1573.76,279.419,1574.67,278.818,1575.16,277.615 C1575.43,276.97,1575.56,276.086,1575.56,274.961 C1575.56,274.961,1575.56,269.311,1575.56,269.311 C1575.56,269.311,1577.49,269.311,1577.49,269.311 C1577.49,269.311,1577.49,280.816,1577.49,280.816 C1577.49,280.816,1575.67,280.816,1575.67,280.816 C1575.67,280.816,1575.69,279.118,1575.69,279.118 C1575.44,279.555,1575.13,279.924,1574.75,280.225 C1574.02,280.826,1573.12,281.127,1572.07,281.127 C1570.43,281.127,1569.31,280.579,1568.72,279.484 C1568.39,278.896,1568.23,278.112,1568.23,277.131 C1568.23,277.131,1568.23,269.311,1568.23,269.311 C1568.23,269.311,1570.21,269.311,1570.21,269.311 z M1581.66,277.206 C1581.72,277.851,1581.88,278.345,1582.14,278.689 C1582.63,279.312,1583.48,279.623,1584.68,279.623 C1585.39,279.623,1586.02,279.468,1586.57,279.156 C1587.11,278.845,1587.39,278.363,1587.39,277.711 C1587.39,277.217,1587.17,276.841,1586.73,276.583 C1586.45,276.426,1585.9,276.243,1585.08,276.035 C1585.08,276.035,1583.54,275.649,1583.54,275.649 C1582.56,275.405,1581.84,275.133,1581.37,274.832 C1580.54,274.31,1580.12,273.586,1580.12,272.662 C1580.12,271.574,1580.52,270.693,1581.3,270.02 C1582.08,269.347,1583.14,269.01,1584.46,269.01 C1586.2,269.01,1587.45,269.518,1588.21,270.535 C1588.69,271.18,1588.93,271.875,1588.91,272.619 C1588.91,272.619,1587.08,272.619,1587.08,272.619 C1587.05,272.183,1586.9,271.785,1586.62,271.427 C1586.18,270.919,1585.41,270.664,1584.31,270.664 C1583.58,270.664,1583.03,270.804,1582.65,271.083 C1582.28,271.363,1582.09,271.731,1582.09,272.19 C1582.09,272.691,1582.34,273.092,1582.83,273.393 C1583.12,273.572,1583.54,273.729,1584.1,273.866 C1584.1,273.866,1585.38,274.177,1585.38,274.177 C1586.77,274.514,1587.7,274.839,1588.17,275.155 C1588.92,275.649,1589.3,276.426,1589.3,277.486 C1589.3,278.51,1588.91,279.394,1588.13,280.139 C1587.36,280.884,1586.17,281.256,1584.58,281.256 C1582.87,281.256,1581.66,280.868,1580.95,280.091 C1580.23,279.314,1579.85,278.352,1579.8,277.206 C1579.8,277.206,1581.66,277.206,1581.66,277.206 z M1591.51,269.311 C1591.51,269.311,1593.35,269.311,1593.35,269.311 C1593.35,269.311,1593.35,270.944,1593.35,270.944 C1593.89,270.27,1594.47,269.787,1595.08,269.493 C1595.69,269.2,1596.36,269.053,1597.11,269.053 C1598.74,269.053,1599.84,269.622,1600.42,270.761 C1600.73,271.384,1600.89,272.276,1600.89,273.436 C1600.89,273.436,1600.89,280.816,1600.89,280.816 C1600.89,280.816,1598.92,280.816,1598.92,280.816 C1598.92,280.816,1598.92,273.565,1598.92,273.565 C1598.92,272.863,1598.82,272.297,1598.61,271.867 C1598.27,271.151,1597.64,270.793,1596.74,270.793 C1596.28,270.793,1595.91,270.84,1595.61,270.933 C1595.08,271.09,1594.62,271.406,1594.22,271.878 C1593.9,272.258,1593.69,272.65,1593.59,273.054 C1593.49,273.459,1593.44,274.037,1593.44,274.789 C1593.44,274.789,1593.44,280.816,1593.44,280.816 C1593.44,280.816,1591.51,280.816,1591.51,280.816 C1591.51,280.816,1591.51,269.311,1591.51,269.311 z M1608.54,269.053 C1609.35,269.053,1610.14,269.245,1610.91,269.628 C1611.68,270.011,1612.26,270.507,1612.66,271.116 C1613.05,271.696,1613.31,272.372,1613.44,273.146 C1613.55,273.676,1613.61,274.521,1613.61,275.681 C1613.61,275.681,1605.17,275.681,1605.17,275.681 C1605.21,276.848,1605.49,277.785,1606,278.49 C1606.52,279.195,1607.32,279.548,1608.4,279.548 C1609.41,279.548,1610.21,279.215,1610.81,278.549 C1611.16,278.162,1611.4,277.715,1611.54,277.206 C1611.54,277.206,1613.45,277.206,1613.45,277.206 C1613.4,277.629,1613.23,278.1,1612.95,278.619 C1612.66,279.138,1612.35,279.562,1612,279.892 C1611.41,280.465,1610.68,280.852,1609.82,281.052 C1609.35,281.167,1608.82,281.224,1608.24,281.224 C1606.8,281.224,1605.59,280.703,1604.59,279.661 C1603.6,278.619,1603.1,277.16,1603.1,275.283 C1603.1,273.436,1603.6,271.935,1604.61,270.783 C1605.61,269.63,1606.92,269.053,1608.54,269.053 z M1611.62,274.145 C1611.54,273.307,1611.36,272.637,1611.07,272.136 C1610.54,271.205,1609.66,270.74,1608.42,270.74 C1607.53,270.74,1606.79,271.06,1606.18,271.701 C1605.58,272.342,1605.26,273.157,1605.23,274.145 C1605.23,274.145,1611.62,274.145,1611.62,274.145 z M1617.13,277.206 C1617.19,277.851,1617.35,278.345,1617.61,278.689 C1618.1,279.312,1618.95,279.623,1620.15,279.623 C1620.87,279.623,1621.5,279.468,1622.04,279.156 C1622.58,278.845,1622.86,278.363,1622.86,277.711 C1622.86,277.217,1622.64,276.841,1622.2,276.583 C1621.92,276.426,1621.37,276.243,1620.55,276.035 C1620.55,276.035,1619.01,275.649,1619.01,275.649 C1618.03,275.405,1617.31,275.133,1616.84,274.832 C1616.01,274.31,1615.59,273.586,1615.59,272.662 C1615.59,271.574,1615.99,270.693,1616.77,270.02 C1617.56,269.347,1618.61,269.01,1619.93,269.01 C1621.67,269.01,1622.92,269.518,1623.68,270.535 C1624.16,271.18,1624.4,271.875,1624.38,272.619 C1624.38,272.619,1622.56,272.619,1622.56,272.619 C1622.52,272.183,1622.37,271.785,1622.09,271.427 C1621.65,270.919,1620.88,270.664,1619.78,270.664 C1619.05,270.664,1618.5,270.804,1618.12,271.083 C1617.75,271.363,1617.56,271.731,1617.56,272.19 C1617.56,272.691,1617.81,273.092,1618.3,273.393 C1618.59,273.572,1619.01,273.729,1619.57,273.866 C1619.57,273.866,1620.85,274.177,1620.85,274.177 C1622.24,274.514,1623.17,274.839,1623.64,275.155 C1624.39,275.649,1624.77,276.426,1624.77,277.486 C1624.77,278.51,1624.38,279.394,1623.6,280.139 C1622.83,280.884,1621.64,281.256,1620.05,281.256 C1618.34,281.256,1617.13,280.868,1616.42,280.091 C1615.7,279.314,1615.32,278.352,1615.27,277.206 C1615.27,277.206,1617.13,277.206,1617.13,277.206 z M1628.13,277.206 C1628.19,277.851,1628.35,278.345,1628.61,278.689 C1629.1,279.312,1629.95,279.623,1631.15,279.623 C1631.87,279.623,1632.5,279.468,1633.04,279.156 C1633.58,278.845,1633.86,278.363,1633.86,277.711 C1633.86,277.217,1633.64,276.841,1633.2,276.583 C1632.92,276.426,1632.37,276.243,1631.55,276.035 C1631.55,276.035,1630.01,275.649,1630.01,275.649 C1629.03,275.405,1628.31,275.133,1627.84,274.832 C1627.01,274.31,1626.59,273.586,1626.59,272.662 C1626.59,271.574,1626.99,270.693,1627.77,270.02 C1628.56,269.347,1629.61,269.01,1630.93,269.01 C1632.67,269.01,1633.92,269.518,1634.68,270.535 C1635.16,271.18,1635.4,271.875,1635.38,272.619 C1635.38,272.619,1633.56,272.619,1633.56,272.619 C1633.52,272.183,1633.37,271.785,1633.09,271.427 C1632.65,270.919,1631.88,270.664,1630.78,270.664 C1630.05,270.664,1629.5,270.804,1629.12,271.083 C1628.75,271.363,1628.56,271.731,1628.56,272.19 C1628.56,272.691,1628.81,273.092,1629.3,273.393 C1629.59,273.572,1630.01,273.729,1630.57,273.866 C1630.57,273.866,1631.85,274.177,1631.85,274.177 C1633.24,274.514,1634.17,274.839,1634.64,275.155 C1635.39,275.649,1635.77,276.426,1635.77,277.486 C1635.77,278.51,1635.38,279.394,1634.6,280.139 C1633.83,280.884,1632.64,281.256,1631.05,281.256 C1629.34,281.256,1628.13,280.868,1627.42,280.091 C1626.7,279.314,1626.32,278.352,1626.27,277.206 C1626.27,277.206,1628.13,277.206,1628.13,277.206 z"/>
      </g>
    </g>
  </g>
  <g id="Group">
    <path id="Path" style="fill:#ffd334;fill-opacity:1;fill-rule:evenodd;opacity:1;stroke:none;" d="M810.011,233.696 C810.011,233.696,1150.62,233.696,1150.62,233.696 C1150.62,233.696,1150.62,313.348,1150.62,313.348 C1150.62,313.348,810.011,313.348,810.011,313.348 C810.011,313.348,810.011,233.696,810.011,233.696 z"/>
    <g id="Text">
      <g id="Text">
        <path style="fill:#000000;fill-opacity:1;fill-rule:nonzero;opacity:1;stroke:none;" d="M957.637,264.816 C957.637,264.816,957.637,266.696,957.637,266.696 C957.637,266.696,952.32,266.696,952.32,266.696 C952.32,266.696,952.32,280.596,952.32,280.596 C952.32,280.596,950.15,280.596,950.15,280.596 C950.15,280.596,950.15,266.696,950.15,266.696 C950.15,266.696,944.832,266.696,944.832,266.696 C944.832,266.696,944.832,264.816,944.832,264.816 C944.832,264.816,957.637,264.816,957.637,264.816 z M958.582,269.091 C958.582,269.091,960.419,269.091,960.419,269.091 C960.419,269.091,960.419,271.078,960.419,271.078 C960.57,270.692,960.939,270.221,961.526,269.666 C962.113,269.111,962.79,268.833,963.556,268.833 C963.592,268.833,963.653,268.837,963.739,268.844 C963.825,268.851,963.971,268.865,964.179,268.887 C964.179,268.887,964.179,270.928,964.179,270.928 C964.065,270.906,963.959,270.892,963.862,270.885 C963.766,270.878,963.66,270.874,963.545,270.874 C962.571,270.874,961.823,271.188,961.3,271.814 C960.777,272.441,960.516,273.162,960.516,273.979 C960.516,273.979,960.516,280.596,960.516,280.596 C960.516,280.596,958.582,280.596,958.582,280.596 C958.582,280.596,958.582,269.091,958.582,269.091 z M965.855,269.145 C965.855,269.145,967.821,269.145,967.821,269.145 C967.821,269.145,967.821,280.596,967.821,280.596 C967.821,280.596,965.855,280.596,965.855,280.596 C965.855,280.596,965.855,269.145,965.855,269.145 z M965.855,264.816 C965.855,264.816,967.821,264.816,967.821,264.816 C967.821,264.816,967.821,267.007,967.821,267.007 C967.821,267.007,965.855,267.007,965.855,267.007 C965.855,267.007,965.855,264.816,965.855,264.816 z M974.803,268.887 C975.705,268.887,976.493,269.109,977.166,269.553 C977.532,269.804,977.904,270.169,978.284,270.649 C978.284,270.649,978.284,269.198,978.284,269.198 C978.284,269.198,980.067,269.198,980.067,269.198 C980.067,269.198,980.067,279.661,980.067,279.661 C980.067,281.122,979.852,282.275,979.422,283.12 C978.62,284.682,977.106,285.462,974.878,285.462 C973.639,285.462,972.597,285.185,971.752,284.63 C970.907,284.075,970.435,283.206,970.334,282.025 C970.334,282.025,972.3,282.025,972.3,282.025 C972.393,282.54,972.579,282.938,972.859,283.217 C973.296,283.647,973.983,283.862,974.921,283.862 C976.404,283.862,977.374,283.339,977.832,282.293 C978.105,281.677,978.23,280.578,978.208,278.995 C977.822,279.583,977.356,280.019,976.812,280.306 C976.268,280.592,975.548,280.736,974.653,280.736 C973.407,280.736,972.316,280.293,971.382,279.409 C970.447,278.525,969.98,277.062,969.98,275.021 C969.98,273.094,970.451,271.59,971.392,270.509 C972.334,269.428,973.471,268.887,974.803,268.887 z M978.284,274.795 C978.284,273.37,977.99,272.314,977.403,271.626 C976.815,270.939,976.067,270.595,975.158,270.595 C973.797,270.595,972.866,271.232,972.365,272.507 C972.1,273.187,971.967,274.079,971.967,275.182 C971.967,276.478,972.23,277.465,972.757,278.141 C973.283,278.818,973.99,279.156,974.878,279.156 C976.268,279.156,977.245,278.53,977.811,277.277 C978.126,276.568,978.284,275.74,978.284,274.795 z M987.038,268.887 C987.941,268.887,988.729,269.109,989.402,269.553 C989.767,269.804,990.139,270.169,990.519,270.649 C990.519,270.649,990.519,269.198,990.519,269.198 C990.519,269.198,992.302,269.198,992.302,269.198 C992.302,269.198,992.302,279.661,992.302,279.661 C992.302,281.122,992.087,282.275,991.658,283.12 C990.856,284.682,989.341,285.462,987.114,285.462 C985.875,285.462,984.833,285.185,983.988,284.63 C983.143,284.075,982.67,283.206,982.57,282.025 C982.57,282.025,984.536,282.025,984.536,282.025 C984.629,282.54,984.815,282.938,985.094,283.217 C985.531,283.647,986.218,283.862,987.157,283.862 C988.639,283.862,989.609,283.339,990.068,282.293 C990.34,281.677,990.465,280.578,990.444,278.995 C990.057,279.583,989.591,280.019,989.047,280.306 C988.503,280.592,987.783,280.736,986.888,280.736 C985.642,280.736,984.552,280.293,983.617,279.409 C982.682,278.525,982.215,277.062,982.215,275.021 C982.215,273.094,982.686,271.59,983.628,270.509 C984.57,269.428,985.706,268.887,987.038,268.887 z M990.519,274.795 C990.519,273.37,990.225,272.314,989.638,271.626 C989.051,270.939,988.302,270.595,987.393,270.595 C986.032,270.595,985.101,271.232,984.6,272.507 C984.335,273.187,984.203,274.079,984.203,275.182 C984.203,276.478,984.466,277.465,984.992,278.141 C985.518,278.818,986.226,279.156,987.114,279.156 C988.503,279.156,989.481,278.53,990.046,277.277 C990.361,276.568,990.519,275.74,990.519,274.795 z M1000,268.833 C1000.82,268.833,1001.61,269.025,1002.38,269.408 C1003.14,269.791,1003.73,270.287,1004.13,270.896 C1004.52,271.476,1004.77,272.153,1004.9,272.926 C1005.02,273.456,1005.07,274.301,1005.07,275.461 C1005.07,275.461,996.642,275.461,996.642,275.461 C996.678,276.629,996.953,277.565,997.469,278.27 C997.985,278.976,998.783,279.328,999.865,279.328 C1000.87,279.328,1001.68,278.995,1002.28,278.329 C1002.63,277.943,1002.87,277.495,1003.01,276.987 C1003.01,276.987,1004.91,276.987,1004.91,276.987 C1004.86,277.409,1004.7,277.88,1004.41,278.399 C1004.13,278.918,1003.81,279.343,1003.46,279.672 C1002.88,280.245,1002.15,280.632,1001.28,280.832 C1000.82,280.947,1000.29,281.004,999.703,281.004 C998.271,281.004,997.057,280.483,996.062,279.441 C995.066,278.399,994.569,276.94,994.569,275.064 C994.569,273.216,995.07,271.716,996.073,270.563 C997.075,269.41,998.386,268.833,1000,268.833 z M1003.09,273.925 C1003.01,273.087,1002.83,272.418,1002.54,271.916 C1002.01,270.985,1001.13,270.52,999.886,270.52 C998.998,270.52,998.253,270.84,997.652,271.481 C997.05,272.122,996.732,272.937,996.696,273.925 C996.696,273.925,1003.09,273.925,1003.09,273.925 z M1007.5,269.091 C1007.5,269.091,1009.34,269.091,1009.34,269.091 C1009.34,269.091,1009.34,271.078,1009.34,271.078 C1009.49,270.692,1009.86,270.221,1010.45,269.666 C1011.03,269.111,1011.71,268.833,1012.48,268.833 C1012.51,268.833,1012.57,268.837,1012.66,268.844 C1012.74,268.851,1012.89,268.865,1013.1,268.887 C1013.1,268.887,1013.1,270.928,1013.1,270.928 C1012.98,270.906,1012.88,270.892,1012.78,270.885 C1012.69,270.878,1012.58,270.874,1012.47,270.874 C1011.49,270.874,1010.74,271.188,1010.22,271.814 C1009.7,272.441,1009.44,273.162,1009.44,273.979 C1009.44,273.979,1009.44,280.596,1009.44,280.596 C1009.44,280.596,1007.5,280.596,1007.5,280.596 C1007.5,280.596,1007.5,269.091,1007.5,269.091 z"/>
      </g>
    </g>
  </g>
  <text id="Text Copy" style="fill:#000000;font-family:Helvetica;font-size:22;" transform="matrix(1,0,0,1,810.011,461.399)">
    <tspan x="109.784" y="21">Acute stress</tspan>
  </text>
  <text id="Text Copy 1" style="fill:#000000;font-family:Helvetica;font-size:22;" transform="matrix(1,0,0,1,1264.06,330.19)">
    <tspan x="40.5681" y="21">Subjectively altered perception</tspan>
  </text>
  <text id="Text Copy 2" style="fill:#000000;font-family:Helvetica;font-size:22;" transform="matrix(1,0,0,1,1264.06,371.168)">
    <tspan x="133.52" y="21">Dissociated</tspan>
  </text>
  <text id="Text Copy 3" style="fill:#000000;font-family:Helvetica;font-size:22;" transform="matrix(1,0,0,1,1264.45,411.877)">
    <tspan x="74.8141" y="21">Breakdown of self/other</tspan>
  </text>
  <text id="Text Copy 4" style="fill:#000000;font-family:Helvetica;font-size:22;" transform="matrix(1,0,0,1,1265,452.673)">
    <tspan x="102.943" y="21">Highly meaningful</tspan>
  </text>
  <text id="Text Copy 5" style="fill:#000000;font-family:Helvetica;font-size:22;" transform="matrix(1,0,0,1,1265,495.514)">
    <tspan x="129.857" y="21">Hyperplastic</tspan>
  </text>
  <text id="Text Copy 6" style="fill:#000000;font-family:Helvetica;font-size:22;" transform="matrix(1,0,0,1,1264.54,536.901)">
    <tspan x="33.2097" y="21">Amenable to change/suggestion</tspan>
  </text>
  <text id="Text Copy 1" style="fill:#000000;font-family:Helvetica;font-size:22;" transform="matrix(1,0,0,1,810.011,540.711)">
    <tspan x="86.554" y="21">Sensory stimulus</tspan>
  </text>
  <text id="Text Copy 2" style="fill:#000000;font-family:Helvetica;font-size:22;" transform="matrix(1,0,0,1,810.011,581.206)">
    <tspan x="57.7917" y="21">Attentional dissociation</tspan>
  </text>
  <text id="Text Copy 3" style="fill:#000000;font-family:Helvetica;font-size:22;" transform="matrix(1,0,0,1,329.379,375.789)">
    <tspan x="56.1945" y="21">Fixed behavioral patterns</tspan>
  </text>
  <text id="Text Copy 4" style="fill:#000000;font-family:Helvetica;font-size:22;" transform="matrix(1,0,0,1,329.971,330.191)">
    <tspan x="37.8684" y="21">DMN at baseline connectivity</tspan>
  </text>
  <text id="Text Copy 4" style="fill:#000000;font-family:Helvetica;font-size:22;" transform="matrix(1,0,0,1,329.379,417.152)">
    <tspan x="8.53146" y="21">Selectively dissociative (e.g., mind-</tspan>
    <tspan x="67.8176" y="47">wandering, ruminating)</tspan>
  </text>
  <text id="Text Copy 5" style="fill:#000000;font-family:Helvetica;font-size:22;" transform="matrix(1,0,0,1,329.358,486.428)">
    <tspan x="31.1223" y="21">Self-other perceived as unified</tspan>
  </text>
  <text id="Text Copy 6" style="fill:#000000;font-family:Helvetica;font-size:22;" transform="matrix(1,0,0,1,329.358,531.253)">
    <tspan x="55.5822" y="21">Stable background stress</tspan>
  </text>
  <text id="Text Copy 4" style="fill:#000000;font-family:Helvetica;font-size:22;" transform="matrix(1,0,0,1,810.011,330.19)">
    <tspan x="36.4041" y="21">Acute changes to 5-HT2AR </tspan>
    <tspan x="124.452" y="47">receptors</tspan>
  </text>
  <text id="Text Copy 5" style="fill:#000000;font-family:Helvetica;font-size:22;" transform="matrix(1,0,0,1,812.952,164.369)">
    <tspan x="33.9602" y="21">Some period of time passes</tspan>
  </text>
  <text id="Text Copy 3" style="fill:#000000;font-family:Helvetica;font-size:22;" transform="matrix(1,0,0,1,810.011,500.347)">
    <tspan x="79.8132" y="21">Bodily dissociation</tspan>
  </text>
  <text id="Text Copy 4" style="fill:#000000;font-family:Helvetica;font-size:22;" transform="matrix(1,0,0,1,810.011,395.783)">
    <tspan x="6.43872" y="21">Decreased functional connectivity </tspan>
    <tspan x="95.7278" y="47">within the DMN</tspan>
  </text>
  <path id="Path" style="fill:#fed433;fill-opacity:1;fill-rule:evenodd;opacity:1;stroke:none;" d="M810.011,643.197 C810.011,643.197,1150.62,643.197,1150.62,643.197 C1150.62,643.197,1150.62,689.466,1150.62,689.466 C1150.62,689.466,810.011,689.466,810.011,689.466 C810.011,689.466,810.011,643.197,810.011,643.197 z"/>
  <text id="Text" style="fill:#000000;font-family:Helvetica;font-size:22;" transform="matrix(1,0,0,1,810.011,652.122)">
    <tspan x="101.19" y="21">Dependent on</tspan>
  </text>
  <text id="Text Copy" style="fill:#000000;font-family:Helvetica;font-size:22;" transform="matrix(1,0,0,1,689.417,703.153)">
    <tspan x="8.50562" y="21">Set: Mindset (mood, expectations), underlying physiology</tspan>
  </text>
  <text id="Text Copy 1" style="fill:#000000;font-family:Helvetica;font-size:22;" transform="matrix(1,0,0,1,689.417,743.497)">
    <tspan x="43.9602" y="21">Setting: Perceived surroundings (objects and their </tspan>
    <tspan x="34.1902" y="47">properties), other persons (especially therapists and </tspan>
    <tspan x="122.238" y="73">guides), additional sensory stimuli</tspan>
  </text>
  <path id="Arrow 2" style="fill:#0061b2;fill-opacity:1;fill-rule:evenodd;opacity:1;stroke:none;" d="M754.143,263.286 C754.143,263.286,705.077,263.286,705.077,263.286 C705.077,263.286,705.077,283.758,705.077,283.758 C705.077,283.758,754.143,283.758,754.143,283.758 C754.143,283.758,754.143,295.533,754.143,295.533 C754.143,295.533,798.042,273.522,798.042,273.522 C798.042,273.522,754.143,251.511,754.143,251.511 C754.143,251.511,754.143,263.286,754.143,263.286 z"/>
  <path id="Arrow 2 Copy" style="fill:#0061b2;fill-opacity:1;fill-rule:evenodd;opacity:1;stroke:none;" d="M1210.77,263.286 C1210.77,263.286,1161.71,263.286,1161.71,263.286 C1161.71,263.286,1161.71,283.758,1161.71,283.758 C1161.71,283.758,1210.77,283.758,1210.77,283.758 C1210.77,283.758,1210.77,295.533,1210.77,295.533 C1210.77,295.533,1254.67,273.522,1254.67,273.522 C1254.67,273.522,1210.77,251.511,1210.77,251.511 C1210.77,251.511,1210.77,263.286,1210.77,263.286 z"/>
  <path id="Arrow 2 Copy 1" style="fill:#0061b2;fill-opacity:1;fill-rule:evenodd;opacity:1;stroke:none;" d="M732.23,225.244 C732.23,225.244,991.023,209.044,991.023,209.044 C991.023,209.044,1254.07,225.244,1254.07,225.244 C1267.11,225.244,1267.51,210.943,1254.48,210.548 C1254.48,210.548,1254.46,210.548,1254.46,210.548 C1254.46,210.548,991.023,195.055,991.023,195.055 C991.023,195.055,732.23,210.548,732.23,210.548 C732.23,210.548,732.23,202.096,732.23,202.096 C732.23,202.096,689.417,217.896,689.417,217.896 C689.417,217.896,732.23,233.696,732.23,233.696 C732.23,233.696,732.23,225.244,732.23,225.244 z"/>
</svg>
